<svg width="248.000000pt" height="192.000000pt" viewBox="0 0 248.000000 192.000000" xmlns="http://www.w3.org/2000/svg">
  <g transform="translate(0.000000,192.000000) scale(0.100000,-0.100000)" fill="none" stroke="none">
    <path d="M0 960 l0 -960 1240 0 1240 0 0 960 0 960 -1240 0 -1240 0 0 -960z
m1317 882 l22 -7 -236 -385 c-129 -212 -238 -388 -242 -393 -4 -4 -54 70 -111
164 -58 95 -109 177 -116 183 -18 19 -64 95 -64 107 0 18 32 54 115 129 114
104 227 163 371 194 70 15 221 19 261 8z m259 -42 c72 -19 158 -56 258 -111
89 -51 219 -201 261 -301 l15 -38 -485 0 c-267 0 -485 2 -485 5 0 2 15 28 33
57 18 29 82 133 141 231 l108 177 37 0 c21 0 73 -9 117 -20z m-1016 -405 c23
-38 46 -72 50 -75 8 -5 379 -616 387 -637 l5 -13 -290 0 -289 0 -26 58 c-15
32 -34 87 -44 123 l-17 64 0 95 1 95 17 63 c24 91 59 165 112 239 25 35 47 63
49 61 1 -2 22 -34 45 -73z m1553 -128 c8 -12 27 -56 42 -97 l28 -75 4 -110 5
-110 -16 -70 c-9 -38 -32 -101 -51 -140 -38 -79 -102 -168 -115 -160 -5 3 -37
52 -71 108 -34 56 -65 104 -69 107 -4 3 -84 132 -179 288 l-171 282 289 0 289
0 15 -23z m-363 -527 c52 -85 99 -159 105 -165 19 -16 75 -114 75 -130 0 -9
-30 -45 -67 -82 -134 -130 -267 -205 -425 -237 -77 -16 -213 -20 -255 -8 l-23
7 226 370 c124 204 233 381 241 394 l15 23 7 -8 c4 -5 50 -79 101 -164z m-390
-144 c0 -2 -63 -106 -139 -232 l-139 -229 -62 2 c-69 2 -179 32 -252 69 -88
44 -183 112 -230 162 -51 54 -111 144 -134 198 l-14 34 485 0 c267 0 485 -2
485 -4z" />
  </g>
  <g transform="translate(0.000000,192.000000) scale(0.100000,-0.100000)" fill="#fe1421" stroke="none">
    <path d="M1530 1279 c0 -14 297 -510 314 -524 7 -5 45 -65 85 -133 l74 -122
13 0 c8 0 36 33 62 73 l48 74 29 84 28 84 4 110 5 110 -16 69 c-9 39 -28 96
-43 128 l-26 58 -288 0 -289 0 0 -11z" />
  </g>
  <g transform="translate(0.000000,192.000000) scale(0.100000,-0.100000)" fill="#fee055" stroke="none">
    <path d="M1276 1596 c-75 -124 -136 -229 -136 -235 l0 -11 485 0 485 0 0 11
c0 29 -80 157 -136 217 l-63 68 -83 51 c-46 27 -106 60 -135 71 -63 27 -179
52 -237 52 l-44 0 -136 -224z" />
  </g>
  <g transform="translate(0.000000,192.000000) scale(0.100000,-0.100000)" fill="#fe9f13" stroke="none">
    <path d="M469 1418 c-46 -62 -94 -172 -113 -255 -20 -89 -20 -216 -1 -306 8
-37 26 -94 41 -127 l27 -60 283 0 284 0 0 16 c0 17 -339 584 -364 609 -8 8
-33 48 -57 89 -24 42 -50 76 -56 76 -7 0 -27 -19 -44 -42z" />
  </g>
  <g transform="translate(0.000000,192.000000) scale(0.100000,-0.100000)" fill="#32f9fe" stroke="none">
    <path d="M400 577 c0 -33 67 -141 133 -213 32 -35 63 -64 68 -64 5 0 30 -15
56 -34 103 -73 231 -120 355 -132 l73 -6 138 226 c75 125 137 231 137 237 l0
9 -480 0 -480 0 0 -23z" />
  </g>
  <g transform="translate(0.000000,192.000000) scale(0.100000,-0.100000)" fill="#1bfe26" stroke="none">
    <path d="M1401 531 c-127 -209 -231 -386 -231 -395 l0 -15 37 -7 c51 -10 211
2 285 22 135 34 256 106 371 218 l67 67 0 27 c0 24 -35 87 -64 118 -6 6 -56
85 -111 177 -55 92 -105 167 -111 167 -6 0 -115 -171 -243 -379z" />
  </g>
  <g transform="translate(0.000000,192.000000) scale(0.100000,-0.100000)" fill="#3941fe" stroke="none">
    <path d="M1050 1835 c-80 -16 -128 -34 -206 -73 -75 -39 -110 -65 -201 -152
l-73 -71 0 -25 c0 -26 28 -84 41 -84 3 0 57 -85 120 -190 63 -104 119 -190
125 -190 12 0 474 753 474 774 0 8 -7 17 -16 20 -27 10 -196 5 -264 -9z" />
  </g>
  <g transform="translate(0.000000,192.000000) scale(0.100000,-0.100000)" fill="#b52e33" stroke="none">
    <path d="M1045 1843 c-85 -18 -167 -50 -242 -94 -64 -39 -197 -156 -232 -205
l-23 -33 22 -38 c13 -21 30 -46 39 -56 9 -10 66 -100 127 -200 60 -99 114
-182 120 -183 9 -3 494 785 494 804 0 5 -14 12 -31 16 -44 9 -59 8 -59 -4 0
-5 8 -10 18 -10 9 0 23 -4 30 -9 l14 -8 -233 -381 -232 -381 -27 42 c-14 23
-64 105 -110 182 -46 77 -94 151 -107 164 -13 13 -26 34 -29 47 l-6 23 14 19
c7 10 51 53 97 96 l85 77 90 45 c84 41 153 63 249 79 20 3 37 10 37 15 0 13
-20 12 -105 -7z" />
    <path d="M1383 1783 c-133 -217 -263 -433 -263 -438 0 -3 9 -5 19 -5 l20 0 -1
18 c-1 18 245 429 268 448 18 14 18 24 0 24 -8 0 -27 -21 -43 -47z" />
    <path d="M1470 1822 c0 -5 30 -15 68 -22 92 -17 181 -53 280 -113 l83 -51 63
-68 c61 -65 142 -198 129 -212 -3 -3 1 -6 11 -6 l17 0 -7 23 c-30 98 -173 274
-262 320 -15 8 -52 29 -82 46 -61 35 -180 75 -252 86 l-48 7 0 -10z" />
    <path d="M464 1428 c-55 -73 -95 -158 -120 -249 l-18 -64 0 -105 0 -105 17
-64 c10 -36 29 -91 44 -123 l26 -58 308 0 309 0 -192 318 c-105 174 -199 326
-209 337 -9 11 -38 55 -64 98 -25 42 -48 77 -51 77 -2 0 -25 -28 -50 -62z
m156 -148 c8 -5 348 -564 357 -587 l5 -13 -275 0 -274 0 -27 60 c-55 123 -70
278 -40 413 19 84 68 193 114 256 l32 43 50 -83 c28 -46 54 -86 58 -89z" />
    <path d="M1512 1278 c8 -13 83 -138 168 -278 84 -140 163 -266 174 -280 12
-14 50 -74 85 -133 36 -59 68 -107 73 -107 16 0 89 104 123 174 19 39 42 103
51 141 l16 70 -5 120 -4 120 -28 75 c-15 41 -34 85 -42 97 l-15 23 -305 0
-305 0 14 -22z m611 -56 c15 -32 34 -89 43 -128 l16 -69 -5 -100 -4 -100 -28
-84 -29 -84 -48 -74 c-26 -40 -49 -73 -52 -73 -2 0 -36 55 -77 122 -40 68 -78
128 -85 133 -9 8 -141 223 -311 508 -2 4 121 7 275 7 l279 0 26 -58z" />
    <path d="M1387 523 c-136 -223 -246 -407 -245 -409 2 -1 27 -6 56 -10 l52 -7
0 11 c0 5 -16 13 -35 16 -19 4 -35 9 -35 12 0 3 104 176 231 385 l232 379 26
-43 c15 -23 60 -96 100 -162 40 -66 90 -144 112 -174 21 -30 39 -62 39 -72 0
-26 -121 -142 -207 -199 -105 -70 -194 -102 -345 -125 -40 -6 -53 -25 -18 -25
45 0 179 33 247 61 113 47 259 158 324 247 l31 42 -38 62 c-21 35 -44 70 -52
78 -8 8 -58 87 -111 174 -54 88 -101 161 -107 163 -5 1 -121 -180 -257 -404z" />
    <path d="M390 565 c25 -59 87 -155 100 -155 5 0 10 3 10 6 0 3 -13 24 -29 47
-15 23 -36 57 -45 75 l-17 33 6 19 6 20 -25 0 -25 0 19 -45z" />
    <path d="M1350 600 c0 -5 -63 -113 -141 -241 -77 -127 -138 -234 -134 -237 3
-3 9 -1 14 4 12 12 291 471 291 479 0 3 -7 5 -15 5 -8 0 -15 -4 -15 -10z" />
    <path d="M500 392 c0 -14 89 -96 97 -89 4 4 -13 28 -37 52 -42 43 -60 54 -60
37z" />
    <path d="M620 290 c0 -12 70 -60 135 -93 46 -23 175 -67 196 -67 5 0 9 4 9 9
0 5 -33 19 -72 31 -80 24 -151 58 -215 101 -45 31 -53 34 -53 19z" />
    <path d="M970 140 c0 -12 48 -25 58 -16 8 9 -18 26 -40 26 -10 0 -18 -4 -18
-10z" />
  </g>
  <g transform="translate(0.000000,192.000000) scale(0.100000,-0.100000)" fill="#b43c40" stroke="none">
    <path d="M1135 1850 c3 -5 15 -10 26 -10 10 0 19 5 19 10 0 6 -12 10 -26 10
l-25 0 6 -10z" />
    <path d="M1240 1850 c0 -5 6 -10 14 -10 8 0 18 5 21 10 l6 10 -20 0 c-12 0
-21 -4 -21 -10z" />
    <path d="M1065 1840 c3 -5 10 -10 16 -10 5 0 9 5 9 10 0 6 -7 10 -16 10 l-15
0 6 -10z" />
    <path d="M1337 1833 l6 -16 -9 6 -10 6 -44 -74 c-24 -40 -43 -76 -42 -79 1 -3
-7 -15 -18 -26 -12 -12 -18 -25 -15 -30 4 -6 2 -10 -4 -10 -9 0 -69 -90 -74
-112 -1 -6 -10 -20 -20 -30 -10 -10 -15 -23 -12 -28 4 -6 2 -10 -4 -10 -9 0
-69 -90 -74 -112 -1 -6 -10 -20 -20 -30 -10 -10 -15 -23 -12 -28 4 -6 2 -10
-4 -10 -10 0 -100 -141 -104 -163 -1 -7 -6 -15 -12 -19 l-9 -7 -24 40 c-13 21
-28 39 -33 39 -6 0 -8 4 -4 10 3 5 -2 18 -12 28 -10 10 -19 23 -20 29 -1 5
-30 57 -65 115 l-63 105 -14 -5 -14 -5 7 11 c4 6 -1 19 -11 29 -26 26 -27 59
-4 91 l20 29 -15 0 c-7 0 -15 -4 -15 -9 -1 -4 -2 -14 -3 -20 -1 -7 -7 -12 -13
-11 l-11 2 2 -27 c1 -15 12 -46 26 -70 l24 -43 14 6 c7 2 10 1 7 -4 -6 -11 58
-122 71 -123 5 0 8 -4 7 -9 -4 -11 130 -232 142 -236 11 -3 70 94 70 117 0 8
3 13 8 10 8 -5 108 156 104 168 -1 4 1 7 6 7 9 0 108 163 104 173 -1 4 1 7 6
7 9 0 108 163 105 173 -2 4 9 19 22 34 14 14 38 49 53 77 l28 51 -15 0 -15 0
6 -17z m-7 -27 c0 -3 -5 -8 -12 -12 l-11 -7 7 11 c7 12 16 16 16 8z m-30 -50
c0 -3 -5 -8 -12 -12 l-11 -7 7 11 c7 12 16 16 16 8z m-110 -180 c0 -3 -5 -8
-12 -12 l-11 -7 7 11 c7 12 16 16 16 8z m-110 -180 c0 -3 -5 -8 -12 -12 l-11
-7 7 11 c7 12 16 16 16 8z m-425 -16 c3 -5 4 -10 1 -10 -3 0 -8 5 -11 10 -3 6
-4 10 -1 10 3 0 8 -4 11 -10z m30 -50 c3 -5 4 -10 1 -10 -3 0 -8 5 -11 10 -3
6 -4 10 -1 10 3 0 8 -4 11 -10z m285 -114 c0 -3 -5 -8 -12 -12 l-11 -7 7 11
c7 12 16 16 16 8z m-145 -116 c3 -5 4 -10 1 -10 -3 0 -8 5 -11 10 -3 6 -4 10
-1 10 3 0 8 -4 11 -10z m45 -46 c0 -8 -19 -13 -24 -6 -3 5 1 9 9 9 8 0 15 -2
15 -3z" />
    <path d="M1015 1830 c3 -5 10 -10 16 -10 5 0 9 5 9 10 0 6 -7 10 -16 10 l-15
0 6 -10z" />
    <path d="M945 1816 l-29 -12 11 -7 c14 -9 47 4 51 21 2 14 5 14 -33 -2z" />
    <path d="M1425 1820 c-4 -6 -10 -8 -15 -5 -4 3 -10 -1 -13 -9 l-5 -14 29 11
c16 6 29 15 29 19 0 11 -18 10 -25 -2z" />
    <path d="M1607 1794 c6 -15 23 -19 23 -5 0 5 -7 11 -14 14 l-15 6 6 -15z" />
    <path d="M893 1786 l0 -14 14 5 c7 3 10 9 7 14 -8 14 -21 11 -21 -5z" />
    <path d="M845 1774 c-16 -9 -36 -23 -43 -32 -7 -9 -19 -17 -27 -17 -8 0 -14
-4 -12 -10 3 -12 0 -13 62 22 28 15 51 34 53 41 3 15 4 15 -33 -4z" />
    <path d="M1667 1775 c7 -19 30 -26 30 -10 0 8 -8 16 -18 18 l-18 5 6 -13z" />
    <path d="M1366 1755 c-3 -8 -1 -17 3 -20 5 -3 11 2 15 10 3 8 1 17 -3 20 -5 3
-11 -2 -15 -10z" />
    <path d="M1737 1745 c3 -8 9 -13 13 -10 5 3 10 0 12 -7 l4 -12 7 11 6 10 -24
11 -24 11 6 -14z" />
    <path d="M1796 1712 c-3 -5 8 -16 24 -25 16 -10 31 -14 34 -9 3 5 -8 16 -24
25 -16 10 -31 14 -34 9z" />
    <path d="M1341 1701 l-13 -8 10 -7 c5 -3 12 1 16 9 6 17 6 18 -13 6z" />
    <path d="M723 1686 l0 -14 14 5 c7 3 10 9 7 14 -8 14 -21 11 -21 -5z" />
    <path d="M1875 1661 c-3 -5 2 -11 10 -15 8 -3 17 -1 20 3 3 5 -2 11 -10 15 -8
3 -17 1 -20 -3z" />
    <path d="M1275 1607 l-27 -49 21 11 c19 11 25 23 22 44 0 4 3 7 9 7 5 0 14 8
19 18 l10 19 -13 0 c-7 0 -25 -23 -41 -50z" />
    <path d="M1997 1553 c-3 -5 -2 -15 2 -22 l9 -13 5 9 c3 5 2 15 -2 22 l-8 13
-6 -9z" />
    <path d="M1227 1526 l-6 -15 14 6 c8 3 12 9 9 14 -7 12 -11 11 -17 -5z" />
    <path d="M2026 1512 c-3 -6 1 -13 10 -16 8 -3 12 -10 9 -16 -3 -5 -1 -10 4
-10 6 0 10 -3 10 -7 -1 -5 -1 -15 0 -22 l1 -15 11 11 11 11 -25 37 c-14 20
-28 32 -31 27z" />
    <path d="M1197 1476 l-6 -15 14 6 c8 3 12 9 9 14 -7 12 -11 11 -17 -5z" />
    <path d="M517 1467 l-5 -14 13 0 13 0 -5 14 c-3 7 -6 13 -8 13 -2 0 -5 -6 -8
-13z" />
    <path d="M477 1446 c-3 -8 -2 -18 3 -21 13 -8 20 9 11 24 l-8 13 -6 -16z" />
    <path d="M529 1422 c5 -8 16 -17 25 -18 l16 -2 -9 16 c-5 8 -16 17 -25 18
l-16 2 9 -16z m18 -9 c-4 -3 -7 0 -7 7 0 7 3 10 7 7 3 -4 3 -10 0 -14z" />
    <path d="M1166 1425 c-3 -8 -1 -17 3 -20 5 -3 11 2 15 10 3 8 1 17 -3 20 -5 3
-11 -2 -15 -10z" />
    <path d="M438 1392 l-17 -29 13 0 c7 0 13 7 12 16 0 9 4 15 11 14 l12 -3 -5
15 c-4 8 -7 15 -8 15 -1 0 -9 -13 -18 -28z" />
    <path d="M2087 1383 c3 -7 9 -10 14 -7 14 8 11 21 -5 21 l-14 0 5 -14z" />
    <path d="M577 1367 l-5 -14 13 0 13 0 -5 14 c-3 7 -6 13 -8 13 -2 0 -5 -6 -8
-13z" />
    <path d="M1130 1369 c0 -4 6 -9 13 -12 l14 -5 0 12 c0 7 -6 13 -14 13 -7 0
-13 -4 -13 -8z" />
    <path d="M2058 1363 c-32 -2 -58 -8 -58 -13 l0 -10 65 0 64 0 -5 15 c-4 8 -7
14 -8 13 0 -1 -27 -3 -58 -5z" />
    <path d="M607 1317 l-5 -13 18 0 18 0 -5 13 c-3 7 -9 13 -13 13 -4 0 -10 -6
-13 -13z" />
    <path d="M2105 1290 c3 -5 8 -10 11 -10 3 0 2 5 -1 10 -3 6 -8 10 -11 10 -3 0
-2 -4 1 -10z" />
    <path d="M647 1267 l-5 -14 13 0 13 0 -5 14 c-3 7 -6 13 -8 13 -2 0 -5 -6 -8
-13z" />
    <path d="M1526 1257 c3 -10 9 -15 12 -12 3 3 0 11 -7 18 l-12 12 7 -18z" />
    <path d="M356 1223 l-7 -18 12 12 c7 7 10 15 7 18 -3 3 -9 -2 -12 -12z" />
    <path d="M677 1217 l-5 -14 13 0 13 0 -5 14 c-3 7 -6 13 -8 13 -2 0 -5 -6 -8
-13z" />
    <path d="M2140 1221 c0 -6 4 -13 10 -16 l10 -6 -6 15 c-7 18 -14 21 -14 7z" />
    <path d="M1556 1207 c3 -10 9 -15 12 -12 3 3 0 11 -7 18 l-12 12 7 -18z" />
    <path d="M1586 1157 c3 -10 9 -15 12 -12 3 3 0 11 -7 18 l-12 12 7 -18z" />
    <path d="M2170 1131 c0 -6 4 -13 10 -16 l10 -6 -6 15 c-7 18 -14 21 -14 7z" />
    <path d="M1616 1107 c3 -10 9 -15 12 -12 3 3 0 11 -7 18 l-12 12 7 -18z" />
    <path d="M2180 1090 c0 -7 3 -10 7 -7 3 4 3 10 0 14 -4 3 -7 0 -7 -7z" />
    <path d="M1646 1057 c3 -10 9 -15 12 -12 3 3 0 11 -7 18 l-12 12 7 -18z" />
    <path d="M2190 1010 c0 -7 3 -10 7 -7 3 4 3 10 0 14 -4 3 -7 0 -7 -7z" />
    <path d="M1638 935 c0 -6 -2 -17 -2 -25 -1 -8 -6 -14 -12 -13 -5 1 -22 -21
-37 -48 l-28 -49 16 6 c8 4 27 26 42 51 l26 44 23 -39 c13 -22 31 -43 40 -46
l16 -6 -28 47 c-39 68 -54 89 -56 78z m17 -25 c3 -5 4 -10 1 -10 -3 0 -8 5
-11 10 -3 6 -4 10 -1 10 3 0 8 -4 11 -10z m30 -50 c3 -5 4 -10 1 -10 -3 0 -8
5 -11 10 -3 6 -4 10 -1 10 3 0 8 -4 11 -10z m-75 -4 c0 -3 -5 -8 -12 -12 l-11
-7 7 11 c7 12 16 16 16 8z" />
    <path d="M1726 927 c3 -10 9 -15 12 -12 3 3 0 11 -7 18 l-12 12 7 -18z" />
    <path d="M330 920 c0 -7 3 -10 7 -7 3 4 3 10 0 14 -4 3 -7 0 -7 -7z" />
    <path d="M2190 900 c0 -7 3 -10 7 -7 3 4 3 10 0 14 -4 3 -7 0 -7 -7z" />
    <path d="M877 887 l-5 -14 13 0 13 0 -5 14 c-3 7 -6 13 -8 13 -2 0 -5 -6 -8
-13z" />
    <path d="M1756 877 c3 -10 9 -15 12 -12 3 3 0 11 -7 18 l-12 12 7 -18z" />
    <path d="M907 837 l-5 -14 13 0 13 0 -5 14 c-3 7 -6 13 -8 13 -2 0 -5 -6 -8
-13z" />
    <path d="M346 827 c3 -10 9 -15 12 -12 3 3 0 11 -7 18 l-12 12 7 -18z" />
    <path d="M1786 827 c3 -10 9 -15 12 -12 3 3 0 11 -7 18 l-12 12 7 -18z" />
    <path d="M2180 820 c0 -7 3 -10 7 -7 3 4 3 10 0 14 -4 3 -7 0 -7 -7z" />
    <path d="M937 787 l-5 -14 13 0 13 0 -5 14 c-3 7 -6 13 -8 13 -2 0 -5 -6 -8
-13z" />
    <path d="M1726 781 c-3 -5 1 -11 9 -14 l14 -6 -6 15 c-6 16 -10 17 -17 5z" />
    <path d="M1816 777 c3 -10 9 -15 12 -12 3 3 0 11 -7 18 l-12 12 7 -18z" />
    <path d="M367 763 c3 -7 6 -13 8 -13 2 0 5 6 8 13 l5 14 -13 0 -13 0 5 -14z" />
    <path d="M1536 765 c-3 -8 -1 -17 3 -20 5 -3 11 2 15 10 3 8 1 17 -3 20 -5 3
-11 -2 -15 -10z" />
    <path d="M967 737 l-5 -14 13 0 13 0 -5 14 c-3 7 -6 13 -8 13 -2 0 -5 -6 -8
-13z" />
    <path d="M1757 733 c-3 -5 -2 -15 2 -22 l9 -13 5 9 c3 5 2 15 -2 22 l-8 13 -6
-9z" />
    <path d="M1847 724 c3 -7 9 -14 14 -14 14 0 10 17 -5 23 l-15 6 6 -15z" />
    <path d="M1477 670 l-26 -47 13 0 c7 0 25 21 39 47 l26 47 -13 0 c-7 0 -25
-21 -39 -47z m23 6 c0 -3 -5 -8 -12 -12 l-11 -7 7 11 c7 12 16 16 16 8z" />
    <path d="M1000 691 c0 -6 4 -13 10 -16 l10 -6 -6 15 c-7 18 -14 21 -14 7z" />
    <path d="M1886 677 c3 -10 9 -15 12 -12 3 3 0 11 -7 18 l-12 12 7 -18z" />
    <path d="M1806 633 c46 -81 49 -83 62 -78 l13 5 -6 -10 c-7 -12 21 -56 41 -64
l15 -6 -27 49 -28 49 -15 -6 -14 -5 6 9 c8 13 -44 98 -62 102 l-13 3 28 -48z
m19 -3 c3 -5 4 -10 1 -10 -3 0 -8 5 -11 10 -3 6 -4 10 -1 10 3 0 8 -4 11 -10z
m70 -100 c3 -5 4 -10 1 -10 -3 0 -8 5 -11 10 -3 6 -4 10 -1 10 3 0 8 -4 11
-10z" />
    <path d="M1916 627 c3 -10 9 -15 12 -12 3 3 0 11 -7 18 l-12 12 7 -18z" />
    <path d="M398 603 c-10 -2 -18 -9 -18 -14 l0 -10 12 7 11 7 -6 -17 -7 -18 22
-39 c28 -50 44 -40 18 11 -11 22 -20 44 -20 50 l0 10 130 0 130 0 0 10 0 10
-127 -1 c-71 -1 -136 -3 -145 -6z" />
    <path d="M1342 598 c1 -7 -6 -28 -16 -46 l-17 -33 19 10 c21 11 34 34 37 64
l2 17 -14 0 c-8 0 -13 -6 -11 -12z m18 -22 c0 -3 -5 -8 -12 -12 l-11 -7 7 11
c7 12 16 16 16 8z" />
    <path d="M1426 585 c-3 -8 -1 -17 3 -20 5 -3 11 2 15 10 3 8 1 17 -3 20 -5 3
-11 -2 -15 -10z" />
    <path d="M2055 539 c-4 -6 -5 -12 -2 -15 2 -3 7 2 10 11 7 17 1 20 -8 4z" />
    <path d="M1367 490 l-26 -47 13 0 c7 0 25 21 39 47 l26 47 -13 0 c-7 0 -25
-21 -39 -47z m23 6 c0 -3 -5 -8 -12 -12 l-11 -7 7 11 c7 12 16 16 16 8z" />
    <path d="M1286 485 c-3 -8 -1 -17 3 -20 5 -3 11 2 15 10 3 8 1 17 -3 20 -5 3
-11 -2 -15 -10z" />
    <path d="M2011 491 l-13 -8 10 -7 c5 -3 12 1 16 9 6 17 6 18 -13 6z" />
    <path d="M467 453 c-11 -10 -8 -23 4 -20 6 1 13 -6 14 -17 2 -10 8 -23 13 -28
l10 -10 6 10 c7 11 -38 74 -47 65z" />
    <path d="M1205 352 c-73 -121 -69 -113 -53 -110 21 5 134 193 120 202 -4 3
-35 -39 -67 -92z m45 44 c0 -3 -5 -8 -12 -12 l-11 -7 7 11 c7 12 16 16 16 8z
m-30 -50 c0 -3 -5 -8 -12 -12 l-11 -7 7 11 c7 12 16 16 16 8z m-30 -50 c0 -3
-5 -8 -12 -12 l-11 -7 7 11 c7 12 16 16 16 8z" />
    <path d="M1917 436 c-3 -8 -2 -18 3 -21 13 -8 24 15 12 27 l-9 9 -6 -15z" />
    <path d="M1317 406 l-6 -15 14 6 c8 3 12 9 9 14 -7 12 -11 11 -17 -5z" />
    <path d="M1887 396 c-3 -8 -2 -18 3 -21 13 -8 24 15 12 27 l-9 9 -6 -15z" />
    <path d="M1257 310 l-26 -47 13 0 c7 0 25 21 39 47 l26 47 -13 0 c-7 0 -25
-21 -39 -47z m23 6 c0 -3 -5 -8 -12 -12 l-11 -7 7 11 c7 12 16 16 16 8z" />
    <path d="M585 310 c-7 -12 32 -33 45 -25 6 4 8 10 5 14 -7 13 -44 20 -50 11z" />
    <path d="M1761 281 l-13 -8 9 -6 c5 -3 15 -2 22 2 l13 9 -9 5 c-5 3 -15 2 -22
-2z" />
    <path d="M647 273 c-10 -9 61 -55 74 -47 l10 6 -20 14 c-11 8 -26 13 -33 12
-7 -2 -12 3 -10 10 2 13 -10 16 -21 5z m58 -33 c3 -5 4 -10 1 -10 -3 0 -8 5
-11 10 -3 6 -4 10 -1 10 3 0 8 -4 11 -10z" />
    <path d="M1723 248 c1 -7 -4 -12 -11 -10 -7 1 -22 -4 -33 -12 l-20 -14 10 -6
c13 -8 84 38 74 47 -11 11 -23 8 -20 -5z m-23 -22 c0 -3 -5 -8 -12 -12 l-11
-7 7 11 c7 12 16 16 16 8z" />
    <path d="M1207 226 l-6 -15 14 6 c8 3 12 9 9 14 -7 12 -11 11 -17 -5z" />
    <path d="M1116 205 c-3 -8 -1 -17 3 -20 5 -3 11 2 15 10 3 8 1 17 -3 20 -5 3
-11 -2 -15 -10z" />
    <path d="M783 194 c0 -16 13 -19 21 -5 3 5 0 11 -7 14 l-14 5 0 -14z" />
    <path d="M1600 187 c-14 -7 -26 -17 -27 -24 l-3 -12 29 10 c15 5 28 16 28 24
0 8 -1 15 -1 14 -1 0 -12 -6 -26 -12z" />
    <path d="M816 182 l-6 -10 43 -15 44 -15 0 14 c0 7 -10 15 -23 18 -12 3 -29 8
-37 12 -8 3 -18 1 -21 -4z" />
    <path d="M1161 153 l-11 -24 12 7 13 8 -14 -17 -13 -17 13 0 c8 0 19 15 25 33
l10 34 -12 0 c-7 0 -17 -11 -23 -24z" />
    <path d="M1089 158 c-1 -7 -1 -16 0 -20 0 -4 -6 -5 -14 -2 l-15 6 0 -11 c0
-18 29 -12 40 8 l10 20 -10 6 c-5 3 -11 0 -11 -7z" />
    <path d="M910 151 c0 -21 64 -29 76 -9 l7 11 -32 -6 -32 -7 6 10 c3 6 -1 10
-9 10 -9 0 -16 -4 -16 -9z" />
    <path d="M1015 130 l-6 -10 15 0 c9 0 16 5 16 10 0 6 -4 10 -9 10 -6 0 -13 -4
-16 -10z" />
    <path d="M1443 126 l0 -14 14 5 c7 3 13 9 13 14 0 5 -6 9 -13 9 -8 0 -14 -6
-14 -14z" />
    <path d="M1235 110 l-6 -10 15 0 c9 0 16 5 16 10 0 6 -4 10 -9 10 -6 0 -13 -4
-16 -10z" />
    <path d="M1320 110 c0 -5 7 -10 16 -10 l15 0 -6 10 c-3 6 -10 10 -16 10 -5 0
-9 -4 -9 -10z" />
  </g>
  <g transform="translate(0.000000,192.000000) scale(0.100000,-0.100000)" fill="#ca6b70" stroke="none">
    <path d="M1160 1850 c19 -13 30 -13 30 0 0 6 -10 10 -22 10 l-23 0 15 -10z" />
    <path d="M1230 1850 c0 -13 11 -13 30 0 l15 10 -22 0 c-13 0 -23 -4 -23 -10z" />
    <path d="M1060 1846 c0 -2 7 -6 15 -10 8 -3 15 -1 15 4 0 6 -7 10 -15 10 -8 0
-15 -2 -15 -4z" />
    <path d="M1338 1843 c7 -3 16 -2 19 1 4 3 -2 6 -13 5 l-19 -1 13 -5z" />
    <path d="M1010 1836 c0 -2 7 -6 15 -10 8 -3 15 -1 15 4 0 6 -7 10 -15 10 -8 0
-15 -2 -15 -4z" />
    <path d="M1460 1820 c0 -5 4 -10 9 -10 6 0 13 5 16 10 l6 10 -15 0 c-9 0 -16
-4 -16 -10z" />
    <path d="M940 1816 c0 -2 7 -7 16 -10 l15 -6 -6 10 c-6 10 -25 14 -25 6z" />
    <path d="M1530 1810 c0 -5 4 -10 9 -10 6 0 13 5 16 10 l6 10 -15 0 c-9 0 -16
-4 -16 -10z" />
    <path d="M902 1801 l-14 -8 14 -6 15 -5 0 14 c0 8 -1 14 -1 14 -1 0 -7 -4 -14
-9z" />
    <path d="M1386 1792 c-3 -5 1 -9 9 -9 8 0 12 4 9 9 -3 4 -7 8 -9 8 -2 0 -6 -4
-9 -8z" />
    <path d="M1615 1790 c-3 -5 -2 -10 4 -10 5 0 13 5 16 10 3 6 2 10 -4 10 -5 0
-13 -4 -16 -10z" />
    <path d="M1645 1780 c-3 -5 -2 -10 4 -10 5 0 13 5 16 10 3 6 2 10 -4 10 -5 0
-13 -4 -16 -10z" />
    <path d="M805 1751 c-3 -5 -2 -12 3 -15 5 -3 9 1 9 9 0 17 -3 19 -12 6z" />
    <path d="M1356 1742 c-3 -5 1 -9 9 -9 8 0 12 4 9 9 -3 4 -7 8 -9 8 -2 0 -6 -4
-9 -8z" />
    <path d="M1266 1718 c3 -5 10 -6 15 -3 13 9 11 12 -6 12 -8 0 -12 -4 -9 -9z" />
    <path d="M1793 1715 c0 -8 4 -12 9 -9 5 3 6 10 3 15 -9 13 -12 11 -12 -6z" />
    <path d="M741 1707 l-11 -14 13 0 c8 0 14 6 14 14 0 7 -1 13 -2 13 -2 0 -8 -6
-14 -13z" />
    <path d="M1823 1695 c0 -8 4 -12 9 -9 5 3 6 10 3 15 -9 13 -12 11 -12 -6z" />
    <path d="M1326 1692 c-3 -5 1 -9 9 -9 8 0 12 4 9 9 -3 4 -7 8 -9 8 -2 0 -6 -4
-9 -8z" />
    <path d="M1863 1677 c0 -8 6 -14 14 -14 l13 0 -11 14 c-6 7 -12 13 -14 13 -1
0 -2 -6 -2 -13z" />
    <path d="M691 1667 l-11 -14 13 0 c8 0 14 6 14 14 0 7 -1 13 -2 13 -2 0 -8 -6
-14 -13z" />
    <path d="M1236 1668 c3 -5 10 -6 15 -3 13 9 11 12 -6 12 -8 0 -12 -4 -9 -9z" />
    <path d="M1297 1647 l-5 -14 13 0 13 0 -5 14 c-3 7 -6 13 -8 13 -2 0 -5 -6 -8
-13z" />
    <path d="M1934 1615 c3 -19 13 -28 32 -31 l16 -3 -23 25 c-12 13 -24 24 -25
24 -1 0 -1 -7 0 -15z m21 -15 c3 -5 4 -10 1 -10 -3 0 -8 5 -11 10 -3 6 -4 10
-1 10 3 0 8 -4 11 -10z" />
    <path d="M631 1607 l-11 -14 13 0 c8 0 14 6 14 14 0 7 -1 13 -2 13 -2 0 -8 -6
-14 -13z" />
    <path d="M1157 1533 c3 -7 6 -13 8 -13 2 0 5 6 8 13 l5 14 -13 0 -13 0 5 -14z" />
    <path d="M1216 1512 c-3 -5 1 -9 9 -9 8 0 12 4 9 9 -3 4 -7 8 -9 8 -2 0 -6 -4
-9 -8z" />
    <path d="M1126 1488 c3 -5 10 -6 15 -3 13 9 11 12 -6 12 -8 0 -12 -4 -9 -9z" />
    <path d="M2036 1492 c-3 -5 1 -9 9 -9 8 0 12 4 9 9 -3 4 -7 8 -9 8 -2 0 -6 -4
-9 -8z" />
    <path d="M566 1478 c3 -5 10 -6 15 -3 13 9 11 12 -6 12 -8 0 -12 -4 -9 -9z" />
    <path d="M1186 1462 c-3 -5 1 -9 9 -9 8 0 12 4 9 9 -3 4 -7 8 -9 8 -2 0 -6 -4
-9 -8z" />
    <path d="M535 1450 c3 -5 8 -10 11 -10 3 0 2 5 -1 10 -3 6 -8 10 -11 10 -3 0
-2 -4 1 -10z" />
    <path d="M2067 1447 l-5 -14 13 0 13 0 -5 14 c-3 7 -6 13 -8 13 -2 0 -5 -6 -8
-13z" />
    <path d="M1156 1412 c-3 -5 1 -9 9 -9 8 0 12 4 9 9 -3 4 -7 8 -9 8 -2 0 -6 -4
-9 -8z" />
    <path d="M565 1400 c3 -5 8 -10 11 -10 3 0 2 5 -1 10 -3 6 -8 10 -11 10 -3 0
-2 -4 1 -10z" />
    <path d="M434 1388 l-7 -11 11 7 c12 7 16 16 8 16 -3 0 -8 -5 -12 -12z" />
    <path d="M2096 1383 l-7 -18 12 12 c7 7 10 15 7 18 -3 3 -9 -2 -12 -12z" />
    <path d="M1127 1366 c-3 -8 -3 -17 0 -20 4 -3 107 -6 230 -6 l223 0 0 11 0 10
-224 -3 -223 -3 4 13 c3 6 3 12 0 12 -3 0 -7 -6 -10 -14z" />
    <path d="M1047 1353 c3 -7 6 -13 8 -13 2 0 5 6 8 13 l5 14 -13 0 -13 0 5 -14z" />
    <path d="M406 1343 l-7 -18 12 12 c7 7 10 15 7 18 -3 3 -9 -2 -12 -12z" />
    <path d="M595 1350 c3 -5 8 -10 11 -10 3 0 2 5 -1 10 -3 6 -8 10 -11 10 -3 0
-2 -4 1 -10z" />
    <path d="M386 1305 c-9 -26 -7 -32 5 -12 6 10 9 21 6 23 -2 3 -7 -2 -11 -11z" />
    <path d="M1016 1308 c3 -5 10 -6 15 -3 13 9 11 12 -6 12 -8 0 -12 -4 -9 -9z" />
    <path d="M635 1300 c3 -5 8 -10 11 -10 3 0 2 5 -1 10 -3 6 -8 10 -11 10 -3 0
-2 -4 1 -10z" />
    <path d="M687 1293 c3 -7 6 -13 8 -13 2 0 5 6 8 13 l5 14 -13 0 -13 0 5 -14z" />
    <path d="M1515 1270 c3 -5 8 -10 11 -10 3 0 2 5 -1 10 -3 6 -8 10 -11 10 -3 0
-2 -4 1 -10z" />
    <path d="M986 1258 c3 -5 10 -6 15 -3 13 9 11 12 -6 12 -8 0 -12 -4 -9 -9z" />
    <path d="M665 1250 c3 -5 8 -10 11 -10 3 0 2 5 -1 10 -3 6 -8 10 -11 10 -3 0
-2 -4 1 -10z" />
    <path d="M716 1248 c3 -5 10 -6 15 -3 13 9 11 12 -6 12 -8 0 -12 -4 -9 -9z" />
    <path d="M695 1200 c3 -5 8 -10 11 -10 3 0 2 5 -1 10 -3 6 -8 10 -11 10 -3 0
-2 -4 1 -10z" />
    <path d="M746 1198 c3 -5 10 -6 15 -3 13 9 11 12 -6 12 -8 0 -12 -4 -9 -9z" />
    <path d="M2150 1200 c0 -7 3 -10 7 -7 3 4 3 10 0 14 -4 3 -7 0 -7 -7z" />
    <path d="M937 1173 c3 -7 6 -13 8 -13 2 0 5 6 8 13 l5 14 -13 0 -13 0 5 -14z" />
    <path d="M725 1150 c3 -5 8 -10 11 -10 3 0 2 5 -1 10 -3 6 -8 10 -11 10 -3 0
-2 -4 1 -10z" />
    <path d="M776 1148 c3 -5 10 -6 15 -3 13 9 11 12 -6 12 -8 0 -12 -4 -9 -9z" />
    <path d="M2170 1140 c0 -7 3 -10 7 -7 3 4 3 10 0 14 -4 3 -7 0 -7 -7z" />
    <path d="M906 1128 c3 -5 10 -6 15 -3 13 9 11 12 -6 12 -8 0 -12 -4 -9 -9z" />
    <path d="M331 1104 l1 -19 5 13 c3 7 2 16 -1 19 -3 4 -6 -2 -5 -13z" />
    <path d="M755 1100 c3 -5 8 -10 11 -10 3 0 2 5 -1 10 -3 6 -8 10 -11 10 -3 0
-2 -4 1 -10z" />
    <path d="M2180 1100 c0 -7 3 -10 7 -7 3 4 3 10 0 14 -4 3 -7 0 -7 -7z" />
    <path d="M1626 1087 c3 -10 9 -15 12 -12 3 3 0 11 -7 18 l-12 12 7 -18z" />
    <path d="M876 1078 c3 -5 10 -6 15 -3 13 9 11 12 -6 12 -8 0 -12 -4 -9 -9z" />
    <path d="M785 1050 c3 -5 8 -10 11 -10 3 0 2 5 -1 10 -3 6 -8 10 -11 10 -3 0
-2 -4 1 -10z" />
    <path d="M1656 1037 c3 -10 9 -15 12 -12 3 3 0 11 -7 18 l-12 12 7 -18z" />
    <path d="M2191 1034 l1 -19 5 13 c3 7 2 16 -1 19 -3 4 -6 -2 -5 -13z" />
    <path d="M810 1011 c0 -6 4 -13 10 -16 l10 -6 -6 15 c-7 18 -14 21 -14 7z" />
    <path d="M1685 990 c3 -5 8 -10 11 -10 3 0 2 5 -1 10 -3 6 -8 10 -11 10 -3 0
-2 -4 1 -10z" />
    <path d="M840 961 c0 -6 4 -13 10 -16 l10 -6 -6 15 c-7 18 -14 21 -14 7z" />
    <path d="M1715 940 c3 -5 8 -10 11 -10 3 0 2 5 -1 10 -3 6 -8 10 -11 10 -3 0
-2 -4 1 -10z" />
    <path d="M870 911 c0 -6 4 -13 10 -16 l10 -6 -6 15 c-7 18 -14 21 -14 7z" />
    <path d="M1607 887 l-5 -14 13 0 13 0 -5 14 c-3 7 -6 13 -8 13 -2 0 -5 -6 -8
-13z" />
    <path d="M1745 890 c3 -5 8 -10 11 -10 3 0 2 5 -1 10 -3 6 -8 10 -11 10 -3 0
-2 -4 1 -10z" />
    <path d="M2191 874 l1 -19 5 13 c3 7 2 16 -1 19 -3 4 -6 -2 -5 -13z" />
    <path d="M341 854 l1 -19 5 13 c3 7 2 16 -1 19 -3 4 -6 -2 -5 -13z" />
    <path d="M900 861 c0 -6 4 -13 10 -16 l10 -6 -6 15 c-7 18 -14 21 -14 7z" />
    <path d="M1775 840 c3 -5 8 -10 11 -10 3 0 2 5 -1 10 -3 6 -8 10 -11 10 -3 0
-2 -4 1 -10z" />
    <path d="M1706 812 c-3 -5 1 -9 9 -9 8 0 12 4 9 9 -3 4 -7 8 -9 8 -2 0 -6 -4
-9 -8z" />
    <path d="M2180 810 c0 -7 3 -10 7 -7 3 4 3 10 0 14 -4 3 -7 0 -7 -7z" />
    <path d="M1556 802 c-3 -5 1 -9 9 -9 8 0 12 4 9 9 -3 4 -7 8 -9 8 -2 0 -6 -4
-9 -8z" />
    <path d="M1805 790 c3 -5 8 -10 11 -10 3 0 2 5 -1 10 -3 6 -8 10 -11 10 -3 0
-2 -4 1 -10z" />
    <path d="M360 780 c0 -7 3 -10 7 -7 3 4 3 10 0 14 -4 3 -7 0 -7 -7z" />
    <path d="M2170 770 c0 -7 3 -10 7 -7 3 4 3 10 0 14 -4 3 -7 0 -7 -7z" />
    <path d="M1736 762 c-3 -5 1 -9 9 -9 8 0 12 4 9 9 -3 4 -7 8 -9 8 -2 0 -6 -4
-9 -8z" />
    <path d="M1526 752 c-3 -5 1 -9 9 -9 8 0 12 4 9 9 -3 4 -7 8 -9 8 -2 0 -6 -4
-9 -8z" />
    <path d="M376 737 c3 -10 9 -15 12 -12 3 3 0 11 -7 18 l-12 12 7 -18z" />
    <path d="M1497 707 l-5 -14 13 0 13 0 -5 14 c-3 7 -6 13 -8 13 -2 0 -5 -6 -8
-13z" />
    <path d="M1766 712 c-3 -5 1 -9 9 -9 8 0 12 4 9 9 -3 4 -7 8 -9 8 -2 0 -6 -4
-9 -8z" />
    <path d="M2140 680 c0 -7 3 -10 7 -7 3 4 3 10 0 14 -4 3 -7 0 -7 -7z" />
    <path d="M1797 667 l-5 -14 13 0 13 0 -5 14 c-3 7 -6 13 -8 13 -2 0 -5 -6 -8
-13z" />
    <path d="M1446 622 c-3 -5 1 -9 9 -9 8 0 12 4 9 9 -3 4 -7 8 -9 8 -2 0 -6 -4
-9 -8z" />
    <path d="M1827 617 l-5 -14 13 0 13 0 -5 14 c-3 7 -6 13 -8 13 -2 0 -5 -6 -8
-13z" />
    <path d="M1926 607 c3 -10 9 -15 12 -12 3 3 0 11 -7 18 l-12 12 7 -18z" />
    <path d="M2104 608 l-7 -11 11 7 c12 7 16 16 8 16 -3 0 -8 -5 -12 -12z" />
    <path d="M1060 599 l0 -10 154 3 153 3 -4 -15 -5 -15 11 15 c6 8 11 18 11 23
0 4 -72 7 -160 7 l-160 0 0 -11z" />
    <path d="M395 570 c-8 -13 24 -72 35 -65 6 4 10 8 10 11 0 3 -5 2 -12 -2 l-11
-7 6 17 7 17 -12 -7 -11 -7 6 17 7 17 -12 -7 -11 -7 6 16 c7 18 2 23 -8 7z" />
    <path d="M1416 572 c-3 -5 1 -9 9 -9 8 0 12 4 9 9 -3 4 -7 8 -9 8 -2 0 -6 -4
-9 -8z" />
    <path d="M1956 557 c3 -10 9 -15 12 -12 3 3 0 11 -7 18 l-12 12 7 -18z" />
    <path d="M1326 538 c3 -5 10 -6 15 -3 13 9 11 12 -6 12 -8 0 -12 -4 -9 -9z" />
    <path d="M1387 527 l-5 -14 13 0 13 0 -5 14 c-3 7 -6 13 -8 13 -2 0 -5 -6 -8
-13z" />
    <path d="M1985 510 c3 -5 8 -10 11 -10 3 0 2 5 -1 10 -3 6 -8 10 -11 10 -3 0
-2 -4 1 -10z" />
    <path d="M2029 503 l-14 -18 18 14 c16 13 21 21 13 21 -2 0 -10 -8 -17 -17z" />
    <path d="M1296 488 c3 -5 10 -6 15 -3 13 9 11 12 -6 12 -8 0 -12 -4 -9 -9z" />
    <path d="M1916 482 c-3 -5 1 -9 9 -9 8 0 12 4 9 9 -3 4 -7 8 -9 8 -2 0 -6 -4
-9 -8z" />
    <path d="M1266 438 c3 -5 10 -6 15 -3 13 9 11 12 -6 12 -8 0 -12 -4 -9 -9z" />
    <path d="M1336 442 c-3 -5 1 -9 9 -9 8 0 12 4 9 9 -3 4 -7 8 -9 8 -2 0 -6 -4
-9 -8z" />
    <path d="M470 425 c0 -2 6 -8 13 -14 l14 -11 0 13 c0 8 -6 14 -14 14 -7 0 -13
-1 -13 -2z" />
    <path d="M1903 403 l0 -13 14 11 c7 6 13 12 13 14 0 1 -6 2 -13 2 -8 0 -14 -6
-14 -14z" />
    <path d="M1236 388 c3 -5 10 -6 15 -3 13 9 11 12 -6 12 -8 0 -12 -4 -9 -9z" />
    <path d="M1306 392 c-3 -5 1 -9 9 -9 8 0 12 4 9 9 -3 4 -7 8 -9 8 -2 0 -6 -4
-9 -8z" />
    <path d="M1277 347 l-5 -14 13 0 13 0 -5 14 c-3 7 -6 13 -8 13 -2 0 -5 -6 -8
-13z" />
    <path d="M1823 337 c-10 -10 -18 -25 -19 -34 l-3 -15 32 28 c18 16 35 31 39
34 4 3 -1 6 -13 6 -11 0 -27 -9 -36 -19z m27 10 c0 -2 -10 -12 -22 -23 l-23
-19 19 23 c18 21 26 27 26 19z" />
    <path d="M600 293 c0 -1 8 -7 18 -12 l19 -10 0 12 c0 7 -9 13 -19 13 -10 0
-18 -1 -18 -3z" />
    <path d="M665 261 c-3 -5 -2 -12 3 -15 5 -3 9 1 9 9 0 17 -3 19 -12 6z" />
    <path d="M1157 253 c3 -7 6 -13 8 -13 2 0 5 6 8 13 l5 14 -13 0 -13 0 5 -14z" />
    <path d="M1226 262 c-3 -5 1 -9 9 -9 8 0 12 4 9 9 -3 4 -7 8 -9 8 -2 0 -6 -4
-9 -8z" />
    <path d="M1713 235 c0 -8 4 -12 9 -9 5 3 6 10 3 15 -9 13 -12 11 -12 -6z" />
    <path d="M1126 208 c3 -5 10 -6 15 -3 13 9 11 12 -6 12 -8 0 -12 -4 -9 -9z" />
    <path d="M1196 212 c-3 -5 1 -9 9 -9 8 0 12 4 9 9 -3 4 -7 8 -9 8 -2 0 -6 -4
-9 -8z" />
    <path d="M1663 205 l0 -13 14 5 c7 3 13 6 13 8 0 2 -6 5 -13 8 l-14 5 0 -13z" />
    <path d="M792 191 l-14 -8 14 -6 15 -5 0 14 c0 8 -1 14 -1 14 -1 0 -7 -4 -14
-9z" />
    <path d="M1606 178 l7 -11 -19 7 -19 7 12 -11 11 -12 17 9 17 10 -16 6 -17 7
7 -12z" />
    <path d="M840 170 l-15 -10 12 0 c6 0 15 5 18 10 8 12 4 12 -15 0z" />
    <path d="M1167 167 l-5 -14 13 0 13 0 -5 14 c-3 7 -6 13 -8 13 -2 0 -5 -6 -8
-13z" />
    <path d="M1096 158 c3 -5 10 -6 15 -3 13 9 11 12 -6 12 -8 0 -12 -4 -9 -9z" />
    <path d="M905 150 c-3 -5 -2 -10 4 -10 5 0 13 5 16 10 3 6 2 10 -4 10 -5 0
-13 -4 -16 -10z" />
    <path d="M1495 140 c3 -5 11 -10 16 -10 6 0 7 5 4 10 -3 6 -11 10 -16 10 -6 0
-7 -4 -4 -10z" />
    <path d="M1025 130 l-6 -10 15 0 c9 0 16 5 16 10 0 6 -4 10 -9 10 -6 0 -13 -4
-16 -10z" />
    <path d="M1160 120 l-15 -10 18 0 c9 0 17 5 17 10 0 12 -1 12 -20 0z" />
    <path d="M1400 120 c0 -5 7 -10 16 -10 l15 0 -6 10 c-3 6 -10 10 -16 10 -5 0
-9 -4 -9 -10z" />
    <path d="M1245 110 l-6 -10 51 0 51 0 -6 10 c-3 6 -24 10 -45 10 -21 0 -42 -4
-45 -10z" />
  </g>
  <g transform="translate(0.000000,192.000000) scale(0.100000,-0.100000)" fill="#c05458" stroke="none">
    <path d="M1175 1850 l-6 -10 41 0 41 0 -6 10 c-3 6 -19 10 -35 10 -16 0 -32
-4 -35 -10z" />
    <path d="M1080 1840 c0 -5 5 -10 11 -10 5 0 7 5 4 10 -3 6 -8 10 -11 10 -2 0
-4 -4 -4 -10z" />
    <path d="M1325 1840 c-3 -5 -2 -17 3 -26 l9 -16 6 16 7 17 -12 -7 -11 -7 6 16
c7 19 2 23 -8 7z" />
    <path d="M1030 1830 c0 -5 5 -10 11 -10 5 0 7 5 4 10 -3 6 -8 10 -11 10 -2 0
-4 -4 -4 -10z" />
    <path d="M1406 1822 c-3 -5 1 -9 9 -9 8 0 12 4 9 9 -3 4 -7 8 -9 8 -2 0 -6 -4
-9 -8z" />
    <path d="M1440 1820 c0 -5 9 -10 21 -10 l20 0 -6 10 c-3 6 -13 10 -21 10 -8 0
-14 -4 -14 -10z" />
    <path d="M1525 1810 l-6 -10 16 0 16 0 -6 10 c-3 6 -8 10 -10 10 -2 0 -7 -4
-10 -10z" />
    <path d="M1575 1800 c-3 -5 -2 -10 4 -10 5 0 13 5 16 10 3 6 2 10 -4 10 -5 0
-13 -4 -16 -10z" />
    <path d="M882 1793 c-6 -2 -10 -9 -6 -14 8 -14 21 -11 21 6 0 8 -1 15 -1 14
-1 0 -7 -3 -14 -6z" />
    <path d="M1377 1777 l-5 -14 14 0 c16 0 19 13 5 21 -5 3 -11 0 -14 -7z" />
    <path d="M1297 1763 c3 -7 6 -13 8 -13 2 0 5 6 8 13 l5 14 -13 0 -13 0 5 -14z" />
    <path d="M1693 1764 c0 -16 13 -19 21 -5 3 5 0 11 -7 14 l-14 5 0 -14z" />
    <path d="M822 1761 l-14 -8 14 -6 15 -5 0 14 c0 8 -1 14 -1 14 -1 0 -7 -4 -14
-9z" />
    <path d="M772 1731 l-14 -8 14 -6 15 -5 0 14 c0 8 -1 14 -1 14 -1 0 -7 -4 -14
-9z" />
    <path d="M1773 1724 c0 -16 13 -19 21 -5 3 5 0 11 -7 14 l-14 5 0 -14z" />
    <path d="M1247 1683 c3 -7 6 -13 8 -13 2 0 5 6 8 13 l5 14 -13 0 -13 0 5 -14z" />
    <path d="M1874 1658 l-7 -11 11 7 c7 4 12 9 12 12 0 8 -9 4 -16 -8z" />
    <path d="M661 1636 l-23 -24 10 -6 c5 -3 19 5 31 18 l23 24 -10 6 c-5 3 -19
-5 -31 -18z m29 11 c0 -2 -10 -12 -22 -23 l-23 -19 19 23 c18 21 26 27 26 19z" />
    <path d="M1217 1633 c3 -7 6 -13 8 -13 2 0 5 6 8 13 l5 14 -13 0 -13 0 5 -14z" />
    <path d="M1267 1597 l-5 -14 13 0 13 0 -5 14 c-3 7 -6 13 -8 13 -2 0 -5 -6 -8
-13z" />
    <path d="M1187 1583 c3 -7 6 -13 8 -13 2 0 5 6 8 13 l5 14 -13 0 -13 0 5 -14z" />
    <path d="M576 1552 c-3 -5 1 -9 9 -9 8 0 12 4 9 9 -3 4 -7 8 -9 8 -2 0 -6 -4
-9 -8z" />
    <path d="M1237 1547 l-5 -14 14 0 c16 0 19 13 5 21 -5 3 -11 0 -14 -7z" />
    <path d="M2006 1532 c-3 -5 1 -9 9 -9 8 0 12 4 9 9 -3 4 -7 8 -9 8 -2 0 -6 -4
-9 -8z" />
    <path d="M1137 1503 c3 -7 6 -13 8 -13 2 0 5 6 8 13 l5 14 -13 0 -13 0 5 -14z" />
    <path d="M557 1493 c3 -7 6 -13 8 -13 2 0 5 6 8 13 l5 14 -13 0 -13 0 5 -14z" />
    <path d="M1207 1497 l-5 -14 14 0 c16 0 19 13 5 21 -5 3 -11 0 -14 -7z" />
    <path d="M1107 1453 c3 -7 6 -13 8 -13 2 0 5 6 8 13 l5 14 -13 0 -13 0 5 -14z" />
    <path d="M587 1443 c3 -7 6 -13 8 -13 2 0 5 6 8 13 l5 14 -13 0 -13 0 5 -14z" />
    <path d="M1177 1446 l-6 -15 14 6 c8 3 12 9 9 14 -7 12 -11 11 -17 -5z" />
    <path d="M540 1441 c0 -6 4 -13 10 -16 l10 -6 -6 15 c-7 18 -14 21 -14 7z" />
    <path d="M464 1428 l-7 -11 11 7 c12 7 16 16 8 16 -3 0 -8 -5 -12 -12z" />
    <path d="M2076 1432 c-9 -15 3 -39 19 -39 l14 0 -11 21 c-14 28 -15 29 -22 18z" />
    <path d="M1077 1403 c3 -7 6 -13 8 -13 2 0 5 6 8 13 l5 14 -13 0 -13 0 5 -14z" />
    <path d="M627 1393 c3 -7 6 -13 8 -13 2 0 5 6 8 13 l5 14 -13 0 -13 0 5 -14z" />
    <path d="M567 1387 l-5 -14 13 0 13 0 -5 14 c-3 7 -6 13 -8 13 -2 0 -5 -6 -8
-13z" />
    <path d="M657 1343 c3 -7 6 -13 8 -13 2 0 5 6 8 13 l5 14 -13 0 -13 0 5 -14z" />
    <path d="M1565 1350 l6 -10 170 0 169 0 0 10 0 10 -176 0 -175 0 6 -10z" />
    <path d="M597 1337 l-5 -14 13 0 13 0 -5 14 c-3 7 -6 13 -8 13 -2 0 -5 -6 -8
-13z" />
    <path d="M396 1323 l-7 -18 12 12 c7 7 10 15 7 18 -3 3 -9 -2 -12 -12z" />
    <path d="M637 1287 l-5 -14 13 0 13 0 -5 14 c-3 7 -6 13 -8 13 -2 0 -5 -6 -8
-13z" />
    <path d="M1506 1287 c3 -10 9 -15 12 -12 3 3 0 11 -7 18 l-12 12 7 -18z" />
    <path d="M997 1273 c3 -7 6 -13 8 -13 2 0 5 6 8 13 l5 14 -13 0 -13 0 5 -14z" />
    <path d="M366 1253 l-7 -18 12 12 c7 7 10 15 7 18 -3 3 -9 -2 -12 -12z" />
    <path d="M667 1237 l-5 -14 13 0 13 0 -5 14 c-3 7 -6 13 -8 13 -2 0 -5 -6 -8
-13z" />
    <path d="M1536 1237 c3 -10 9 -15 12 -12 3 3 0 11 -7 18 l-12 12 7 -18z" />
    <path d="M967 1223 c3 -7 6 -13 8 -13 2 0 5 6 8 13 l5 14 -13 0 -13 0 5 -14z" />
    <path d="M737 1213 c3 -7 6 -13 8 -13 2 0 5 6 8 13 l5 14 -13 0 -13 0 5 -14z" />
    <path d="M350 1200 c0 -7 3 -10 7 -7 3 4 3 10 0 14 -4 3 -7 0 -7 -7z" />
    <path d="M697 1187 l-5 -14 13 0 13 0 -5 14 c-3 7 -6 13 -8 13 -2 0 -5 -6 -8
-13z" />
    <path d="M1566 1187 c3 -10 9 -15 12 -12 3 3 0 11 -7 18 l-12 12 7 -18z" />
    <path d="M767 1163 c3 -7 6 -13 8 -13 2 0 5 6 8 13 l5 14 -13 0 -13 0 5 -14z" />
    <path d="M2160 1170 c0 -7 3 -10 7 -7 3 4 3 10 0 14 -4 3 -7 0 -7 -7z" />
    <path d="M340 1160 c0 -7 3 -10 7 -7 3 4 3 10 0 14 -4 3 -7 0 -7 -7z" />
    <path d="M1596 1137 c3 -10 9 -15 12 -12 3 3 0 11 -7 18 l-12 12 7 -18z" />
    <path d="M797 1113 c3 -7 6 -13 8 -13 2 0 5 6 8 13 l5 14 -13 0 -13 0 5 -14z" />
    <path d="M887 1093 c3 -7 6 -13 8 -13 2 0 5 6 8 13 l5 14 -13 0 -13 0 5 -14z" />
    <path d="M827 1063 c3 -7 6 -13 8 -13 2 0 5 6 8 13 l5 14 -13 0 -13 0 5 -14z" />
    <path d="M857 1043 c3 -7 6 -13 8 -13 2 0 5 6 8 13 l5 14 -13 0 -13 0 5 -14z" />
    <path d="M2190 1020 c0 -7 3 -10 7 -7 3 4 3 10 0 14 -4 3 -7 0 -7 -7z" />
    <path d="M330 910 c0 -7 3 -10 7 -7 3 4 3 10 0 14 -4 3 -7 0 -7 -7z" />
    <path d="M1736 907 c3 -10 9 -15 12 -12 3 3 0 11 -7 18 l-12 12 7 -18z" />
    <path d="M1657 897 l-5 -14 13 0 13 0 -5 14 c-3 7 -6 13 -8 13 -2 0 -5 -6 -8
-13z" />
    <path d="M2190 890 c0 -7 3 -10 7 -7 3 4 3 10 0 14 -4 3 -7 0 -7 -7z" />
    <path d="M1766 857 c3 -10 9 -15 12 -12 3 3 0 11 -7 18 l-12 12 7 -18z" />
    <path d="M1687 847 l-5 -14 13 0 13 0 -5 14 c-3 7 -6 13 -8 13 -2 0 -5 -6 -8
-13z" />
    <path d="M1577 837 l-5 -14 13 0 13 0 -5 14 c-3 7 -6 13 -8 13 -2 0 -5 -6 -8
-13z" />
    <path d="M930 811 c0 -6 4 -13 10 -16 l10 -6 -6 15 c-7 18 -14 21 -14 7z" />
    <path d="M1796 807 c3 -10 9 -15 12 -12 3 3 0 11 -7 18 l-12 12 7 -18z" />
    <path d="M1717 803 c-11 -11 -8 -20 7 -20 l14 0 -5 14 c-6 15 -7 15 -16 6z" />
    <path d="M1547 787 l-5 -14 14 0 c16 0 19 13 5 21 -5 3 -11 0 -14 -7z" />
    <path d="M960 761 c0 -6 4 -13 10 -16 l10 -6 -6 15 c-7 18 -14 21 -14 7z" />
    <path d="M1826 757 c3 -10 9 -15 12 -12 3 3 0 11 -7 18 l-12 12 7 -18z" />
    <path d="M1747 753 c-11 -11 -8 -20 7 -20 l14 0 -5 14 c-6 15 -7 15 -16 6z" />
    <path d="M396 700 c21 -45 22 -46 20 -16 0 13 -3 23 -5 20 -2 -2 -10 4 -18 14
l-14 17 17 -35z" />
    <path d="M2155 719 c-4 -6 -5 -12 -2 -15 2 -3 7 2 10 11 7 17 1 20 -8 4z" />
    <path d="M990 711 c0 -6 4 -13 10 -16 l10 -6 -6 15 c-7 18 -14 21 -14 7z" />
    <path d="M1866 707 c3 -10 9 -15 12 -12 3 3 0 11 -7 18 l-12 12 7 -18z" />
    <path d="M2125 649 c-9 -17 -15 -33 -13 -35 3 -2 12 12 21 31 21 43 13 47 -8
4z" />
    <path d="M1467 657 l-5 -14 13 0 13 0 -5 14 c-3 7 -6 13 -8 13 -2 0 -5 -6 -8
-13z" />
    <path d="M1896 657 c3 -10 9 -15 12 -12 3 3 0 11 -7 18 l-12 12 7 -18z" />
    <path d="M1437 607 l-5 -14 14 0 c16 0 19 13 5 21 -5 3 -11 0 -14 -7z" />
    <path d="M376 597 c3 -10 9 -15 12 -12 3 3 0 11 -7 18 l-12 12 7 -18z" />
    <path d="M720 600 l0 -10 181 0 180 0 -6 10 -6 10 -175 0 -174 0 0 -10z" />
    <path d="M2075 564 c-9 -15 -12 -23 -6 -20 11 7 35 46 28 46 -3 0 -12 -12 -22
-26z" />
    <path d="M1867 567 l-5 -14 13 0 13 0 -5 14 c-3 7 -6 13 -8 13 -2 0 -5 -6 -8
-13z" />
    <path d="M1897 517 l-5 -14 13 0 13 0 -5 14 c-3 7 -6 13 -8 13 -2 0 -5 -6 -8
-13z" />
    <path d="M447 459 l17 -29 7 12 c9 14 -9 45 -27 45 l-13 0 16 -28z m18 1 c3
-5 4 -10 1 -10 -3 0 -8 5 -11 10 -3 6 -4 10 -1 10 3 0 8 -4 11 -10z" />
    <path d="M1357 477 l-5 -14 13 0 13 0 -5 14 c-3 7 -6 13 -8 13 -2 0 -5 -6 -8
-13z" />
    <path d="M1926 471 c-4 -6 -4 -21 0 -33 l6 -21 10 16 9 17 -9 16 -9 17 -7 -12z
m11 -28 c-4 -3 -7 0 -7 7 0 7 3 10 7 7 3 -4 3 -10 0 -14z" />
    <path d="M1266 455 c-2 -6 2 -12 10 -12 7 0 15 6 18 12 2 6 -2 12 -10 12 -7 0
-15 -6 -18 -12z" />
    <path d="M1327 427 l-5 -14 14 0 c16 0 19 13 5 21 -5 3 -11 0 -14 -7z" />
    <path d="M1247 403 c3 -7 6 -13 8 -13 2 0 5 6 8 13 l5 14 -13 0 -13 0 5 -14z" />
    <path d="M1896 397 c3 -10 9 -15 12 -12 3 3 0 11 -7 18 l-12 12 7 -18z" />
    <path d="M1217 353 c3 -7 6 -13 8 -13 2 0 5 6 8 13 l5 14 -13 0 -13 0 5 -14z" />
    <path d="M1187 303 c3 -7 6 -13 8 -13 2 0 5 6 8 13 l5 14 -13 0 -13 0 5 -14z" />
    <path d="M1247 297 l-5 -14 13 0 13 0 -5 14 c-6 16 -10 16 -16 0z" />
    <path d="M1753 265 c0 -8 4 -12 9 -9 5 3 6 10 3 15 -9 13 -12 11 -12 -6z" />
    <path d="M1217 247 l-5 -14 14 0 c16 0 19 13 5 21 -5 3 -11 0 -14 -7z" />
    <path d="M711 231 l-12 -8 24 -10 24 -11 0 14 c0 16 -20 25 -36 15z" />
    <path d="M766 201 c-3 -5 0 -11 7 -14 l14 -5 0 14 c0 16 -13 19 -21 5z" />
    <path d="M1635 202 c-5 -4 -11 -13 -12 -19 l-3 -12 25 11 c13 6 22 15 19 19
-6 11 -16 11 -29 1z" />
    <path d="M1100 179 c0 -15 18 -19 23 -6 l5 14 -14 0 c-8 0 -14 -4 -14 -8z" />
    <path d="M1556 159 l7 -11 -20 6 -20 6 0 -14 0 -14 29 10 c15 6 25 14 22 19
-3 5 -10 9 -15 9 -6 0 -7 -5 -3 -11z" />
    <path d="M955 140 c-3 -5 -2 -10 4 -10 5 0 13 5 16 10 3 6 2 10 -4 10 -5 0
-13 -4 -16 -10z" />
    <path d="M1035 130 c4 -6 17 -9 30 -7 38 5 37 13 -1 15 l-36 3 7 -11z" />
    <path d="M1455 130 c3 -5 11 -10 16 -10 6 0 7 5 4 10 -3 6 -11 10 -16 10 -6 0
-7 -4 -4 -10z" />
  </g>
  <g transform="translate(0.000000,192.000000) scale(0.100000,-0.100000)" fill="#d68d90" stroke="none">
    <path d="M1128 1853 c6 -2 18 -2 25 0 6 3 1 5 -13 5 -14 0 -19 -2 -12 -5z" />
    <path d="M1268 1853 c6 -2 18 -2 25 0 6 3 1 5 -13 5 -14 0 -19 -2 -12 -5z" />
    <path d="M1053 1843 c4 -3 10 -3 14 0 3 4 0 7 -7 7 -7 0 -10 -3 -7 -7z" />
    <path d="M970 1826 c0 -2 7 -6 15 -10 8 -3 15 -1 15 4 0 6 -7 10 -15 10 -8 0
-15 -2 -15 -4z" />
    <path d="M1475 1820 l-6 -10 15 6 c18 7 21 14 7 14 -6 0 -13 -4 -16 -10z" />
    <path d="M1405 1810 c3 -5 8 -10 11 -10 3 0 2 5 -1 10 -3 6 -8 10 -11 10 -3 0
-2 -4 1 -10z" />
    <path d="M1545 1810 l-6 -10 15 6 c18 7 21 14 7 14 -6 0 -13 -4 -16 -10z" />
    <path d="M910 1806 c0 -2 7 -7 16 -10 l15 -6 -6 10 c-6 10 -25 14 -25 6z" />
    <path d="M1316 1798 c3 -5 10 -6 15 -3 13 9 11 12 -6 12 -8 0 -12 -4 -9 -9z" />
    <path d="M1585 1800 l-6 -10 15 6 c18 7 21 14 7 14 -6 0 -13 -4 -16 -10z" />
    <path d="M1675 1770 l-6 -10 15 6 c18 7 21 14 7 14 -6 0 -13 -4 -16 -10z" />
    <path d="M1375 1760 c3 -5 8 -10 11 -10 3 0 2 5 -1 10 -3 6 -8 10 -11 10 -3 0
-2 -4 1 -10z" />
    <path d="M1286 1748 c3 -5 10 -6 15 -3 13 9 11 12 -6 12 -8 0 -12 -4 -9 -9z" />
    <path d="M1720 1749 c0 -5 5 -7 10 -4 6 3 10 8 10 11 0 2 -4 4 -10 4 -5 0 -10
-5 -10 -11z" />
    <path d="M1744 1738 l-7 -11 11 7 c7 4 12 9 12 12 0 8 -9 4 -16 -8z" />
    <path d="M1345 1721 c-3 -5 -2 -12 3 -15 5 -3 9 1 9 9 0 17 -3 19 -12 6z" />
    <path d="M1255 1700 c3 -5 8 -10 11 -10 3 0 2 5 -1 10 -3 6 -8 10 -11 10 -3 0
-2 -4 1 -10z" />
    <path d="M705 1681 c-3 -5 -2 -12 3 -15 5 -3 9 1 9 9 0 17 -3 19 -12 6z" />
    <path d="M1311 1667 l-11 -14 13 0 c8 0 14 6 14 14 0 7 -1 13 -2 13 -2 0 -8
-6 -14 -13z" />
    <path d="M1914 1633 c2 -10 6 -17 10 -16 15 3 16 11 2 22 l-14 12 2 -18z" />
    <path d="M1206 1618 c3 -5 10 -6 15 -3 13 9 11 12 -6 12 -8 0 -12 -4 -9 -9z" />
    <path d="M1276 1612 c-3 -5 1 -9 9 -9 8 0 12 4 9 9 -3 4 -7 8 -9 8 -2 0 -6 -4
-9 -8z" />
    <path d="M601 1587 l-11 -14 15 0 c8 0 11 5 8 10 l-6 10 17 -6 17 -7 -6 10
c-8 14 -20 12 -34 -3z" />
    <path d="M1965 1580 c-3 -5 -5 -10 -3 -11 2 0 11 -2 21 -4 l18 -3 -12 14 c-14
17 -16 17 -24 4z" />
    <path d="M1176 1568 c3 -5 10 -6 15 -3 13 9 11 12 -6 12 -8 0 -12 -4 -9 -9z" />
    <path d="M1246 1562 c-3 -5 1 -9 9 -9 8 0 12 4 9 9 -3 4 -7 8 -9 8 -2 0 -6 -4
-9 -8z" />
    <path d="M560 1529 c-7 -11 -9 -23 -7 -26 3 -2 8 5 12 16 l6 21 11 -6 11 -7
-7 11 c-10 16 -14 15 -26 -9z" />
    <path d="M1146 1518 c3 -5 10 -6 15 -3 13 9 11 12 -6 12 -8 0 -12 -4 -9 -9z" />
    <path d="M2016 1522 c-3 -5 1 -9 9 -9 8 0 12 4 9 9 -3 4 -7 8 -9 8 -2 0 -6 -4
-9 -8z" />
    <path d="M499 1473 l-14 -18 16 12 c9 7 20 9 24 5 l8 -7 -7 13 c-4 6 -9 12
-10 12 -2 0 -10 -8 -17 -17z" />
    <path d="M1205 1480 c3 -5 8 -10 11 -10 3 0 2 5 -1 10 -3 6 -8 10 -11 10 -3 0
-2 -4 1 -10z" />
    <path d="M1115 1470 c3 -5 8 -10 11 -10 3 0 2 5 -1 10 -3 6 -8 10 -11 10 -3 0
-2 -4 1 -10z" />
    <path d="M2056 1462 c-3 -5 1 -9 9 -9 8 0 12 4 9 9 -3 4 -7 8 -9 8 -2 0 -6 -4
-9 -8z" />
    <path d="M1096 1438 c3 -5 10 -6 15 -3 13 9 11 12 -6 12 -8 0 -12 -4 -9 -9z" />
    <path d="M596 1428 c3 -5 10 -6 15 -3 13 9 11 12 -6 12 -8 0 -12 -4 -9 -9z" />
    <path d="M1175 1430 c3 -5 8 -10 11 -10 3 0 2 5 -1 10 -3 6 -8 10 -11 10 -3 0
-2 -4 1 -10z" />
    <path d="M454 1418 l-7 -11 11 7 c12 7 16 16 8 16 -3 0 -8 -5 -12 -12z" />
    <path d="M1066 1388 c3 -5 10 -6 15 -3 13 9 11 12 -6 12 -8 0 -12 -4 -9 -9z" />
    <path d="M1141 1387 l-11 -14 13 0 c8 0 14 6 14 14 0 7 -1 13 -2 13 -2 0 -8
-6 -14 -13z" />
    <path d="M636 1378 c3 -5 10 -6 15 -3 13 9 11 12 -6 12 -8 0 -12 -4 -9 -9z" />
    <path d="M414 1358 l-7 -11 11 7 c12 7 16 16 8 16 -3 0 -8 -5 -12 -12z" />
    <path d="M1120 1350 c0 -5 5 -10 11 -10 5 0 7 5 4 10 -3 6 -8 10 -11 10 -2 0
-4 -4 -4 -10z" />
    <path d="M1033 1333 l0 -13 14 11 c7 6 13 12 13 14 0 1 -6 2 -13 2 -8 0 -14
-6 -14 -14z" />
    <path d="M666 1328 c3 -5 10 -6 15 -3 13 9 11 12 -6 12 -8 0 -12 -4 -9 -9z" />
    <path d="M613 1323 c4 -3 10 -3 14 0 3 4 0 7 -7 7 -7 0 -10 -3 -7 -7z" />
    <path d="M1005 1290 c3 -5 8 -10 11 -10 3 0 2 5 -1 10 -3 6 -8 10 -11 10 -3 0
-2 -4 1 -10z" />
    <path d="M690 1285 c0 -2 6 -8 13 -14 l14 -11 0 13 c0 8 -6 14 -14 14 -7 0
-13 -1 -13 -2z" />
    <path d="M2126 1257 c3 -10 9 -15 12 -12 3 3 0 11 -7 18 l-12 12 7 -18z" />
    <path d="M360 1240 c0 -7 3 -10 7 -7 3 4 3 10 0 14 -4 3 -7 0 -7 -7z" />
    <path d="M734 1228 l-7 -11 11 7 c7 4 12 9 12 12 0 8 -9 4 -16 -8z" />
    <path d="M1545 1220 c3 -5 8 -10 11 -10 3 0 2 5 -1 10 -3 6 -8 10 -11 10 -3 0
-2 -4 1 -10z" />
    <path d="M350 1210 c0 -7 3 -10 7 -7 3 4 3 10 0 14 -4 3 -7 0 -7 -7z" />
    <path d="M956 1208 c3 -5 10 -6 15 -3 13 9 11 12 -6 12 -8 0 -12 -4 -9 -9z" />
    <path d="M764 1178 l-7 -11 11 7 c7 4 12 9 12 12 0 8 -9 4 -16 -8z" />
    <path d="M340 1170 c0 -7 3 -10 7 -7 3 4 3 10 0 14 -4 3 -7 0 -7 -7z" />
    <path d="M1575 1170 c3 -5 8 -10 11 -10 3 0 2 5 -1 10 -3 6 -8 10 -11 10 -3 0
-2 -4 1 -10z" />
    <path d="M923 1153 l0 -13 14 11 c7 6 13 12 13 14 0 1 -6 2 -13 2 -8 0 -14 -6
-14 -14z" />
    <path d="M735 1130 c3 -5 8 -10 11 -10 3 0 2 5 -1 10 -3 6 -8 10 -11 10 -3 0
-2 -4 1 -10z" />
    <path d="M330 1120 c0 -7 3 -10 7 -7 3 4 3 10 0 14 -4 3 -7 0 -7 -7z" />
    <path d="M1605 1120 c3 -5 8 -10 11 -10 3 0 2 5 -1 10 -3 6 -8 10 -11 10 -3 0
-2 -4 1 -10z" />
    <path d="M895 1110 c3 -5 8 -10 11 -10 3 0 2 5 -1 10 -3 6 -8 10 -11 10 -3 0
-2 -4 1 -10z" />
    <path d="M806 1098 c3 -5 10 -6 15 -3 13 9 11 12 -6 12 -8 0 -12 -4 -9 -9z" />
    <path d="M765 1080 c3 -5 8 -10 11 -10 3 0 2 5 -1 10 -3 6 -8 10 -11 10 -3 0
-2 -4 1 -10z" />
    <path d="M1635 1070 c3 -5 8 -10 11 -10 3 0 2 5 -1 10 -3 6 -8 10 -11 10 -3 0
-2 -4 1 -10z" />
    <path d="M836 1048 c3 -5 10 -6 15 -3 13 9 11 12 -6 12 -8 0 -12 -4 -9 -9z" />
    <path d="M2190 1050 c0 -7 3 -10 7 -7 3 4 3 10 0 14 -4 3 -7 0 -7 -7z" />
    <path d="M790 1036 c0 -2 8 -10 18 -17 l17 -14 -14 18 c-13 16 -21 21 -21 13z" />
    <path d="M1660 1026 c0 -2 8 -10 18 -17 l17 -14 -14 18 c-13 16 -21 21 -21 13z" />
    <path d="M820 986 c0 -2 8 -10 18 -17 l17 -14 -14 18 c-13 16 -21 21 -21 13z" />
    <path d="M1705 960 c3 -5 8 -10 11 -10 3 0 2 5 -1 10 -3 6 -8 10 -11 10 -3 0
-2 -4 1 -10z" />
    <path d="M850 936 c0 -2 8 -10 18 -17 l17 -14 -14 18 c-13 16 -21 21 -21 13z" />
    <path d="M1620 905 l-11 -13 18 3 c10 2 20 4 23 5 3 1 10 1 15 0 6 -1 6 2 2 6
-13 13 -36 13 -47 -1z" />
    <path d="M331 894 l1 -19 5 13 c3 7 2 16 -1 19 -3 4 -6 -2 -5 -13z" />
    <path d="M895 870 c3 -5 8 -10 11 -10 3 0 2 5 -1 10 -3 6 -8 10 -11 10 -3 0
-2 -4 1 -10z" />
    <path d="M1676 862 c-3 -5 1 -9 9 -9 8 0 12 4 9 9 -3 4 -7 8 -9 8 -2 0 -6 -4
-9 -8z" />
    <path d="M2190 860 c0 -7 3 -10 7 -7 3 4 3 10 0 14 -4 3 -7 0 -7 -7z" />
    <path d="M1586 852 c-3 -5 1 -9 9 -9 8 0 12 4 9 9 -3 4 -7 8 -9 8 -2 0 -6 -4
-9 -8z" />
    <path d="M925 820 c3 -5 8 -10 11 -10 3 0 2 5 -1 10 -3 6 -8 10 -11 10 -3 0
-2 -4 1 -10z" />
    <path d="M350 810 c0 -7 3 -10 7 -7 3 4 3 10 0 14 -4 3 -7 0 -7 -7z" />
    <path d="M2180 800 c0 -7 3 -10 7 -7 3 4 3 10 0 14 -4 3 -7 0 -7 -7z" />
    <path d="M1724 778 l-7 -11 11 7 c12 7 16 16 8 16 -3 0 -8 -5 -12 -12z" />
    <path d="M955 770 c3 -5 8 -10 11 -10 3 0 2 5 -1 10 -3 6 -8 10 -11 10 -3 0
-2 -4 1 -10z" />
    <path d="M1545 770 c3 -5 8 -10 11 -10 3 0 2 5 -1 10 -3 6 -8 10 -11 10 -3 0
-2 -4 1 -10z" />
    <path d="M2166 755 c-3 -9 -6 -22 -5 -28 0 -7 5 -1 10 12 5 13 8 26 5 28 -2 2
-6 -3 -10 -12z" />
    <path d="M370 750 c0 -7 3 -10 7 -7 3 4 3 10 0 14 -4 3 -7 0 -7 -7z" />
    <path d="M1835 740 c3 -5 8 -10 11 -10 3 0 2 5 -1 10 -3 6 -8 10 -11 10 -3 0
-2 -4 1 -10z" />
    <path d="M1511 727 l-11 -14 13 0 c8 0 14 6 14 14 0 7 -1 13 -2 13 -2 0 -8 -6
-14 -13z" />
    <path d="M1754 728 l-7 -11 11 7 c12 7 16 16 8 16 -3 0 -8 -5 -12 -12z" />
    <path d="M985 720 c3 -5 8 -10 11 -10 3 0 2 5 -1 10 -3 6 -8 10 -11 10 -3 0
-2 -4 1 -10z" />
    <path d="M1783 687 c0 -8 6 -14 14 -14 l13 0 -11 14 c-6 7 -12 13 -14 13 -1 0
-2 -6 -2 -13z" />
    <path d="M1875 690 c3 -5 8 -10 11 -10 3 0 2 5 -1 10 -3 6 -8 10 -11 10 -3 0
-2 -4 1 -10z" />
    <path d="M1015 670 c3 -5 8 -10 11 -10 3 0 2 5 -1 10 -3 6 -8 10 -11 10 -3 0
-2 -4 1 -10z" />
    <path d="M1476 672 c-3 -5 1 -9 9 -9 8 0 12 4 9 9 -3 4 -7 8 -9 8 -2 0 -6 -4
-9 -8z" />
    <path d="M1905 640 c3 -5 8 -10 11 -10 3 0 2 5 -1 10 -3 6 -8 10 -11 10 -3 0
-2 -4 1 -10z" />
    <path d="M1816 632 c-3 -5 1 -9 9 -9 8 0 12 4 9 9 -3 4 -7 8 -9 8 -2 0 -6 -4
-9 -8z" />
    <path d="M1370 600 c0 -7 3 -10 7 -7 3 4 3 10 0 14 -4 3 -7 0 -7 -7z" />
    <path d="M1435 590 c3 -5 8 -10 11 -10 3 0 2 5 -1 10 -3 6 -8 10 -11 10 -3 0
-2 -4 1 -10z" />
    <path d="M1930 596 c0 -2 8 -10 18 -17 l17 -14 -14 18 c-13 16 -21 21 -21 13z" />
    <path d="M1846 582 c-2 -4 4 -8 14 -8 10 0 16 4 14 8 -3 4 -9 8 -14 8 -5 0
-11 -4 -14 -8z" />
    <path d="M1346 568 c3 -5 10 -6 15 -3 13 9 11 12 -6 12 -8 0 -12 -4 -9 -9z" />
    <path d="M2074 558 l-7 -11 11 7 c12 7 16 16 8 16 -3 0 -8 -5 -12 -12z" />
    <path d="M1401 547 l-11 -14 13 0 c8 0 14 6 14 14 0 7 -1 13 -2 13 -2 0 -8 -6
-14 -13z" />
    <path d="M1960 546 c0 -2 8 -10 18 -17 l17 -14 -14 18 c-13 16 -21 21 -21 13z" />
    <path d="M1886 532 c-3 -5 1 -9 9 -9 8 0 12 4 9 9 -3 4 -7 8 -9 8 -2 0 -6 -4
-9 -8z" />
    <path d="M1313 515 c0 -8 4 -12 9 -9 5 3 6 10 3 15 -9 13 -12 11 -12 -6z" />
    <path d="M2044 518 l-7 -11 11 7 c12 7 16 16 8 16 -3 0 -8 -5 -12 -12z" />
    <path d="M434 488 l-7 -11 11 7 c7 4 12 9 12 12 0 8 -9 4 -16 -8z" />
    <path d="M1366 492 c-3 -5 1 -9 9 -9 8 0 12 4 9 9 -3 4 -7 8 -9 8 -2 0 -6 -4
-9 -8z" />
    <path d="M2005 480 c3 -5 8 -10 11 -10 3 0 2 5 -1 10 -3 6 -8 10 -11 10 -3 0
-2 -4 1 -10z" />
    <path d="M1285 470 c3 -5 8 -10 11 -10 3 0 2 5 -1 10 -3 6 -8 10 -11 10 -3 0
-2 -4 1 -10z" />
    <path d="M446 458 c3 -5 10 -6 15 -3 13 9 11 12 -6 12 -8 0 -12 -4 -9 -9z" />
    <path d="M1940 450 c0 -7 3 -10 7 -7 3 4 3 10 0 14 -4 3 -7 0 -7 -7z" />
    <path d="M466 428 c3 -5 10 -6 15 -3 13 9 11 12 -6 12 -8 0 -12 -4 -9 -9z" />
    <path d="M1325 410 c3 -5 8 -10 11 -10 3 0 2 5 -1 10 -3 6 -8 10 -11 10 -3 0
-2 -4 1 -10z" />
    <path d="M542 343 c17 -18 33 -33 34 -33 1 0 1 7 0 15 -3 21 -34 52 -51 52
l-16 0 33 -34z m13 7 c10 -11 16 -20 13 -20 -3 0 -13 9 -23 20 -10 11 -16 20
-13 20 3 0 13 -9 23 -20z" />
    <path d="M1291 367 l-11 -14 13 0 c8 0 14 6 14 14 0 7 -1 13 -2 13 -2 0 -8 -6
-14 -13z" />
    <path d="M1864 369 c-8 -14 14 -19 25 -6 l11 14 -16 0 c-8 0 -17 -4 -20 -8z" />
    <path d="M1206 338 c3 -5 10 -6 15 -3 13 9 11 12 -6 12 -8 0 -12 -4 -9 -9z" />
    <path d="M1256 312 c-3 -5 1 -9 9 -9 8 0 12 4 9 9 -3 4 -7 8 -9 8 -2 0 -6 -4
-9 -8z" />
    <path d="M1793 295 c0 -8 4 -12 9 -9 5 3 6 10 3 15 -9 13 -12 11 -12 -6z" />
    <path d="M1176 288 c3 -5 10 -6 15 -3 13 9 11 12 -6 12 -8 0 -12 -4 -9 -9z" />
    <path d="M635 281 c-3 -5 -2 -12 3 -15 5 -3 9 1 9 9 0 17 -3 19 -12 6z" />
    <path d="M1743 255 c0 -8 4 -12 9 -9 5 3 6 10 3 15 -9 13 -12 11 -12 -6z" />
    <path d="M695 241 c-3 -5 -2 -12 3 -15 5 -3 9 1 9 9 0 17 -3 19 -12 6z" />
    <path d="M1143 233 l0 -13 14 11 c7 6 13 12 13 14 0 1 -6 2 -13 2 -8 0 -14 -6
-14 -14z" />
    <path d="M1215 230 c3 -5 8 -10 11 -10 3 0 2 5 -1 10 -3 6 -8 10 -11 10 -3 0
-2 -4 1 -10z" />
    <path d="M1683 215 c0 -8 4 -12 9 -9 5 3 6 10 3 15 -9 13 -12 11 -12 -6z" />
    <path d="M1115 190 c3 -5 8 -10 11 -10 3 0 2 5 -1 10 -3 6 -8 10 -11 10 -3 0
-2 -4 1 -10z" />
    <path d="M1181 187 l-11 -14 13 0 c8 0 14 6 14 14 0 7 -1 13 -2 13 -2 0 -8 -6
-14 -13z" />
    <path d="M810 180 l-15 -10 12 0 c6 0 15 5 18 10 8 12 4 12 -15 0z" />
    <path d="M870 160 l-15 -10 12 0 c6 0 15 5 18 10 8 12 4 12 -15 0z" />
    <path d="M900 150 l-15 -10 12 0 c6 0 15 5 18 10 8 12 4 12 -15 0z" />
    <path d="M1537 149 c7 -7 15 -10 18 -7 3 3 -2 9 -12 12 l-18 7 12 -12z" />
    <path d="M950 140 l-15 -10 12 0 c6 0 15 5 18 10 8 12 4 12 -15 0z" />
    <path d="M1085 140 c3 -5 8 -10 11 -10 3 0 2 5 -1 10 -3 6 -8 10 -11 10 -3 0
-2 -4 1 -10z" />
    <path d="M1507 139 c7 -7 15 -10 18 -7 3 3 -2 9 -12 12 l-18 7 12 -12z" />
    <path d="M1015 130 l-20 -9 17 0 c9 -1 20 4 23 9 7 11 7 11 -20 0z" />
    <path d="M1147 133 c-10 -9 -9 -23 1 -23 5 0 9 7 9 15 0 17 -1 18 -10 8z" />
    <path d="M1467 129 c7 -7 15 -10 18 -7 3 3 -2 9 -12 12 l-18 7 12 -12z" />
    <path d="M1417 119 c7 -7 15 -10 18 -7 3 3 -2 9 -12 12 l-18 7 12 -12z" />
    <path d="M1230 110 l-25 -8 22 -1 c12 -1 25 4 28 9 3 6 5 10 3 9 -2 -1 -14 -5
-28 -9z" />
    <path d="M1328 108 c6 -6 18 -8 28 -6 l19 4 -28 6 -29 6 10 -10z" />
  </g>
  <g transform="translate(0.000000,192.000000) scale(0.100000,-0.100000)" fill="#e3b3b5" stroke="none">
    <path d="M1113 1853 c4 -3 10 -3 14 0 3 4 0 7 -7 7 -7 0 -10 -3 -7 -7z" />
    <path d="M1293 1853 c4 -3 10 -3 14 0 3 4 0 7 -7 7 -7 0 -10 -3 -7 -7z" />
    <path d="M1498 1823 c7 -3 16 -2 19 1 4 3 -2 6 -13 5 l-19 -1 13 -5z" />
    <path d="M1624 1788 l-7 -11 11 7 c12 7 16 16 8 16 -3 0 -8 -5 -12 -12z" />
    <path d="M875 1780 c3 -5 8 -10 11 -10 3 0 2 5 -1 10 -3 6 -8 10 -11 10 -3 0
-2 -4 1 -10z" />
    <path d="M1305 1780 c3 -5 8 -10 11 -10 3 0 2 5 -1 10 -3 6 -8 10 -11 10 -3 0
-2 -4 1 -10z" />
    <path d="M1654 1778 l-7 -11 11 7 c12 7 16 16 8 16 -3 0 -8 -5 -12 -12z" />
    <path d="M855 1770 c3 -5 8 -10 11 -10 3 0 2 5 -1 10 -3 6 -8 10 -11 10 -3 0
-2 -4 1 -10z" />
    <path d="M835 1760 c3 -5 8 -10 11 -10 3 0 2 5 -1 10 -3 6 -8 10 -11 10 -3 0
-2 -4 1 -10z" />
    <path d="M1706 1762 c-3 -5 1 -9 9 -9 8 0 12 4 9 9 -3 4 -7 8 -9 8 -2 0 -6 -4
-9 -8z" />
    <path d="M785 1730 c3 -5 8 -10 11 -10 3 0 2 5 -1 10 -3 6 -8 10 -11 10 -3 0
-2 -4 1 -10z" />
    <path d="M1275 1730 c3 -5 8 -10 11 -10 3 0 2 5 -1 10 -3 6 -8 10 -11 10 -3 0
-2 -4 1 -10z" />
    <path d="M1350 1730 c0 -5 5 -10 11 -10 5 0 7 5 4 10 -3 6 -8 10 -11 10 -2 0
-4 -4 -4 -10z" />
    <path d="M1764 1728 l-7 -11 11 7 c7 4 12 9 12 12 0 8 -9 4 -16 -8z" />
    <path d="M755 1721 c-3 -5 -2 -12 3 -15 5 -3 9 1 9 9 0 17 -3 19 -12 6z" />
    <path d="M1814 1698 l-7 -11 11 7 c12 7 16 16 8 16 -3 0 -8 -5 -12 -12z" />
    <path d="M715 1691 c-3 -5 -2 -12 3 -15 5 -3 9 1 9 9 0 17 -3 19 -12 6z" />
    <path d="M1320 1680 c0 -5 5 -10 11 -10 5 0 7 5 4 10 -3 6 -8 10 -11 10 -2 0
-4 -4 -4 -10z" />
    <path d="M1845 1680 l-6 -10 15 6 c18 7 21 14 7 14 -6 0 -13 -4 -16 -10z" />
    <path d="M1225 1650 c3 -5 8 -10 11 -10 3 0 2 5 -1 10 -3 6 -8 10 -11 10 -3 0
-2 -4 1 -10z" />
    <path d="M1903 1645 c0 -8 4 -12 9 -9 5 3 6 10 3 15 -9 13 -12 11 -12 -6z" />
    <path d="M1295 1630 c3 -5 8 -10 11 -10 3 0 2 5 -1 10 -3 6 -8 10 -11 10 -3 0
-2 -4 1 -10z" />
    <path d="M1195 1600 c3 -5 8 -10 11 -10 3 0 2 5 -1 10 -3 6 -8 10 -11 10 -3 0
-2 -4 1 -10z" />
    <path d="M1265 1580 c3 -5 8 -10 11 -10 3 0 2 5 -1 10 -3 6 -8 10 -11 10 -3 0
-2 -4 1 -10z" />
    <path d="M1986 1562 c-3 -5 1 -9 9 -9 8 0 12 4 9 9 -3 4 -7 8 -9 8 -2 0 -6 -4
-9 -8z" />
    <path d="M1165 1550 c3 -5 8 -10 11 -10 3 0 2 5 -1 10 -3 6 -8 10 -11 10 -3 0
-2 -4 1 -10z" />
    <path d="M1235 1530 c3 -5 8 -10 11 -10 3 0 2 5 -1 10 -3 6 -8 10 -11 10 -3 0
-2 -4 1 -10z" />
    <path d="M2024 1508 l-7 -11 11 7 c7 4 12 9 12 12 0 8 -9 4 -16 -8z" />
    <path d="M2044 1478 l-7 -11 11 7 c7 4 12 9 12 12 0 8 -9 4 -16 -8z" />
    <path d="M484 1458 l-7 -11 11 7 c12 7 16 16 8 16 -3 0 -8 -5 -12 -12z" />
    <path d="M584 1458 l-7 -11 11 7 c12 7 16 16 8 16 -3 0 -8 -5 -12 -12z" />
    <path d="M2074 1428 l-7 -11 11 7 c12 7 16 16 8 16 -3 0 -8 -5 -12 -12z" />
    <path d="M1085 1420 c3 -5 8 -10 11 -10 3 0 2 5 -1 10 -3 6 -8 10 -11 10 -3 0
-2 -4 1 -10z" />
    <path d="M620 1410 l-15 -10 12 0 c6 0 15 5 18 10 8 12 4 12 -15 0z" />
    <path d="M2084 1408 l-7 -11 11 7 c7 4 12 9 12 12 0 8 -9 4 -16 -8z" />
    <path d="M1150 1400 c0 -5 5 -10 11 -10 5 0 7 5 4 10 -3 6 -8 10 -11 10 -2 0
-4 -4 -4 -10z" />
    <path d="M1055 1370 c3 -5 8 -10 11 -10 3 0 2 5 -1 10 -3 6 -8 10 -11 10 -3 0
-2 -4 1 -10z" />
    <path d="M654 1358 l-7 -11 11 7 c12 7 16 16 8 16 -3 0 -8 -5 -12 -12z" />
    <path d="M1030 1320 c0 -7 3 -10 7 -7 3 4 3 10 0 14 -4 3 -7 0 -7 -7z" />
    <path d="M684 1308 l-7 -11 11 7 c7 4 12 9 12 12 0 8 -9 4 -16 -8z" />
    <path d="M710 1260 c0 -7 3 -10 7 -7 3 4 3 10 0 14 -4 3 -7 0 -7 -7z" />
    <path d="M975 1240 c3 -5 8 -10 11 -10 3 0 2 5 -1 10 -3 6 -8 10 -11 10 -3 0
-2 -4 1 -10z" />
    <path d="M945 1190 c3 -5 8 -10 11 -10 3 0 2 5 -1 10 -3 6 -8 10 -11 10 -3 0
-2 -4 1 -10z" />
    <path d="M730 1140 c0 -7 3 -10 7 -7 3 4 3 10 0 14 -4 3 -7 0 -7 -7z" />
    <path d="M920 1140 c0 -7 3 -10 7 -7 3 4 3 10 0 14 -4 3 -7 0 -7 -7z" />
    <path d="M330 1130 c0 -7 3 -10 7 -7 3 4 3 10 0 14 -4 3 -7 0 -7 -7z" />
    <path d="M794 1128 l-7 -11 11 7 c7 4 12 9 12 12 0 8 -9 4 -16 -8z" />
    <path d="M2180 1110 c0 -7 3 -10 7 -7 3 4 3 10 0 14 -4 3 -7 0 -7 -7z" />
    <path d="M760 1090 c0 -7 3 -10 7 -7 3 4 3 10 0 14 -4 3 -7 0 -7 -7z" />
    <path d="M824 1078 l-7 -11 11 7 c7 4 12 9 12 12 0 8 -9 4 -16 -8z" />
    <path d="M865 1060 c3 -5 8 -10 11 -10 3 0 2 5 -1 10 -3 6 -8 10 -11 10 -3 0
-2 -4 1 -10z" />
    <path d="M2190 1060 c0 -7 3 -10 7 -7 3 4 3 10 0 14 -4 3 -7 0 -7 -7z" />
    <path d="M323 1010 c0 -30 2 -43 4 -27 2 15 2 39 0 55 -2 15 -4 2 -4 -28z" />
    <path d="M790 1040 c0 -7 3 -10 7 -7 3 4 3 10 0 14 -4 3 -7 0 -7 -7z" />
    <path d="M1680 1000 c0 -7 3 -10 7 -7 3 4 3 10 0 14 -4 3 -7 0 -7 -7z" />
    <path d="M820 990 c0 -7 3 -10 7 -7 3 4 3 10 0 14 -4 3 -7 0 -7 -7z" />
    <path d="M1710 950 c0 -7 3 -10 7 -7 3 4 3 10 0 14 -4 3 -7 0 -7 -7z" />
    <path d="M850 940 c0 -7 3 -10 7 -7 3 4 3 10 0 14 -4 3 -7 0 -7 -7z" />
    <path d="M1635 929 c-4 -6 -5 -12 -2 -15 2 -3 7 2 10 11 7 17 1 20 -8 4z" />
    <path d="M1664 878 l-7 -11 11 7 c12 7 16 16 8 16 -3 0 -8 -5 -12 -12z" />
    <path d="M1605 870 c3 -5 8 -10 11 -10 3 0 2 5 -1 10 -3 6 -8 10 -11 10 -3 0
-2 -4 1 -10z" />
    <path d="M2190 850 c0 -7 3 -10 7 -7 3 4 3 10 0 14 -4 3 -7 0 -7 -7z" />
    <path d="M340 840 c0 -7 3 -10 7 -7 3 4 3 10 0 14 -4 3 -7 0 -7 -7z" />
    <path d="M1694 828 l-7 -11 11 7 c12 7 16 16 8 16 -3 0 -8 -5 -12 -12z" />
    <path d="M1575 820 c3 -5 8 -10 11 -10 3 0 2 5 -1 10 -3 6 -8 10 -11 10 -3 0
-2 -4 1 -10z" />
    <path d="M1520 740 c0 -5 5 -10 11 -10 5 0 7 5 4 10 -3 6 -8 10 -11 10 -2 0
-4 -4 -4 -10z" />
    <path d="M1853 713 c4 -3 10 -3 14 0 3 4 0 7 -7 7 -7 0 -10 -3 -7 -7z" />
    <path d="M1775 700 c-3 -5 -1 -10 4 -10 6 0 11 5 11 10 0 6 -2 10 -4 10 -3 0
-8 -4 -11 -10z" />
    <path d="M1495 690 c3 -5 8 -10 11 -10 3 0 2 5 -1 10 -3 6 -8 10 -11 10 -3 0
-2 -4 1 -10z" />
    <path d="M1804 648 l-7 -11 11 7 c7 4 12 9 12 12 0 8 -9 4 -16 -8z" />
    <path d="M1465 640 c3 -5 8 -10 11 -10 3 0 2 5 -1 10 -3 6 -8 10 -11 10 -3 0
-2 -4 1 -10z" />
    <path d="M1834 598 l-7 -11 11 7 c12 7 16 16 8 16 -3 0 -8 -5 -12 -12z" />
    <path d="M1950 570 c0 -7 3 -10 7 -7 3 4 3 10 0 14 -4 3 -7 0 -7 -7z" />
    <path d="M1410 560 c0 -5 5 -10 11 -10 5 0 7 5 4 10 -3 6 -8 10 -11 10 -2 0
-4 -4 -4 -10z" />
    <path d="M1335 550 c3 -5 8 -10 11 -10 3 0 2 5 -1 10 -3 6 -8 10 -11 10 -3 0
-2 -4 1 -10z" />
    <path d="M1874 548 l-7 -11 11 7 c12 7 16 16 8 16 -3 0 -8 -5 -12 -12z" />
    <path d="M1980 520 c0 -7 3 -10 7 -7 3 4 3 10 0 14 -4 3 -7 0 -7 -7z" />
    <path d="M1385 510 c3 -5 8 -10 11 -10 3 0 2 5 -1 10 -3 6 -8 10 -11 10 -3 0
-2 -4 1 -10z" />
    <path d="M1305 500 c3 -5 8 -10 11 -10 2 0 4 5 4 10 0 6 -5 10 -11 10 -5 0 -7
-4 -4 -10z" />
    <path d="M1904 498 l-7 -11 11 7 c12 7 16 16 8 16 -3 0 -8 -5 -12 -12z" />
    <path d="M1355 460 c3 -5 8 -10 11 -10 3 0 2 5 -1 10 -3 6 -8 10 -11 10 -3 0
-2 -4 1 -10z" />
    <path d="M1255 420 c3 -5 8 -10 11 -10 3 0 2 5 -1 10 -3 6 -8 10 -11 10 -3 0
-2 -4 1 -10z" />
    <path d="M1916 418 c3 -5 10 -6 15 -3 13 9 11 12 -6 12 -8 0 -12 -4 -9 -9z" />
    <path d="M501 384 c6 -7 16 -11 21 -8 11 7 3 17 -18 20 l-15 2 12 -14z" />
    <path d="M1300 380 c0 -5 5 -10 11 -10 5 0 7 5 4 10 -3 6 -8 10 -11 10 -2 0
-4 -4 -4 -10z" />
    <path d="M1886 378 c3 -5 10 -6 15 -3 13 9 11 12 -6 12 -8 0 -12 -4 -9 -9z" />
    <path d="M1225 370 c3 -5 8 -10 11 -10 3 0 2 5 -1 10 -3 6 -8 10 -11 10 -3 0
-2 -4 1 -10z" />
    <path d="M1275 330 c3 -5 8 -10 11 -10 3 0 2 5 -1 10 -3 6 -8 10 -11 10 -3 0
-2 -4 1 -10z" />
    <path d="M576 322 c-3 -5 1 -15 8 -21 l14 -12 -2 15 c-3 21 -13 29 -20 18z" />
    <path d="M1195 320 c3 -5 8 -10 11 -10 3 0 2 5 -1 10 -3 6 -8 10 -11 10 -3 0
-2 -4 1 -10z" />
    <path d="M1783 285 c0 -8 4 -12 9 -9 5 3 6 10 3 15 -9 13 -12 11 -12 -6z" />
    <path d="M1245 280 c3 -5 8 -10 11 -10 3 0 2 5 -1 10 -3 6 -8 10 -11 10 -3 0
-2 -4 1 -10z" />
    <path d="M1165 270 c3 -5 8 -10 11 -10 3 0 2 5 -1 10 -3 6 -8 10 -11 10 -3 0
-2 -4 1 -10z" />
    <path d="M674 248 l-7 -11 11 7 c7 4 12 9 12 12 0 8 -9 4 -16 -8z" />
    <path d="M1735 250 c3 -5 8 -10 11 -10 3 0 2 5 -1 10 -3 6 -8 10 -11 10 -3 0
-2 -4 1 -10z" />
    <path d="M1705 230 c3 -5 8 -10 11 -10 3 0 2 5 -1 10 -3 6 -8 10 -11 10 -3 0
-2 -4 1 -10z" />
    <path d="M724 218 l-7 -11 11 7 c7 4 12 9 12 12 0 8 -9 4 -16 -8z" />
    <path d="M1135 220 c3 -5 8 -10 11 -10 2 0 4 5 4 10 0 6 -5 10 -11 10 -5 0 -7
-4 -4 -10z" />
    <path d="M747 213 l-7 -11 15 -6 c8 -3 17 0 21 6 l7 11 -11 -7 c-5 -3 -12 -1
-14 6 l-4 12 -7 -11z" />
    <path d="M1190 200 c0 -5 5 -10 11 -10 5 0 7 5 4 10 -3 6 -8 10 -11 10 -2 0
-4 -4 -4 -10z" />
    <path d="M1635 190 c3 -5 8 -10 11 -10 3 0 2 5 -1 10 -3 6 -8 10 -11 10 -3 0
-2 -4 1 -10z" />
    <path d="M1105 170 c3 -5 8 -10 11 -10 3 0 2 5 -1 10 -3 6 -8 10 -11 10 -3 0
-2 -4 1 -10z" />
    <path d="M1565 160 c3 -5 8 -10 11 -10 3 0 2 5 -1 10 -3 6 -8 10 -11 10 -3 0
-2 -4 1 -10z" />
    <path d="M1165 150 c3 -5 8 -10 11 -10 3 0 2 5 -1 10 -3 6 -8 10 -11 10 -3 0
-2 -4 1 -10z" />
    <path d="M933 133 c4 -3 10 -3 14 0 3 4 0 7 -7 7 -7 0 -10 -3 -7 -7z" />
    <path d="M993 123 c4 -3 10 -3 14 0 3 4 0 7 -7 7 -7 0 -10 -3 -7 -7z" />
    <path d="M1433 113 c4 -3 10 -3 14 0 3 4 0 7 -7 7 -7 0 -10 -3 -7 -7z" />
    <path d="M1203 103 c4 -3 10 -3 14 0 3 4 0 7 -7 7 -7 0 -10 -3 -7 -7z" />
    <path d="M1363 103 c4 -3 10 -3 14 0 3 4 0 7 -7 7 -7 0 -10 -3 -7 -7z" />
  </g>
  <g transform="translate(0.000000,192.000000) scale(0.100000,-0.100000)" fill="#eed1d3" stroke="none">
    <path d="M1385 1780 c3 -5 8 -10 11 -10 3 0 2 5 -1 10 -3 6 -8 10 -11 10 -3 0
-2 -4 1 -10z" />
    <path d="M1784 1718 l-7 -11 11 7 c7 4 12 9 12 12 0 8 -9 4 -16 -8z" />
    <path d="M723 1693 c4 -3 10 -3 14 0 3 4 0 7 -7 7 -7 0 -10 -3 -7 -7z" />
    <path d="M1894 1648 l-7 -11 11 7 c7 4 12 9 12 12 0 8 -9 4 -16 -8z" />
    <path d="M1245 1550 c3 -5 8 -10 11 -10 3 0 2 5 -1 10 -3 6 -8 10 -11 10 -3 0
-2 -4 1 -10z" />
    <path d="M1994 1548 l-7 -11 11 7 c7 4 12 9 12 12 0 8 -9 4 -16 -8z" />
    <path d="M560 1530 c0 -7 3 -10 7 -7 3 4 3 10 0 14 -4 3 -7 0 -7 -7z" />
    <path d="M1215 1500 c3 -5 8 -10 11 -10 3 0 2 5 -1 10 -3 6 -8 10 -11 10 -3 0
-2 -4 1 -10z" />
    <path d="M1185 1450 c3 -5 8 -10 11 -10 3 0 2 5 -1 10 -3 6 -8 10 -11 10 -3 0
-2 -4 1 -10z" />
    <path d="M320 1060 c0 -7 3 -10 7 -7 3 4 3 10 0 14 -4 3 -7 0 -7 -7z" />
    <path d="M320 960 c0 -7 3 -10 7 -7 3 4 3 10 0 14 -4 3 -7 0 -7 -7z" />
    <path d="M1714 798 l-7 -11 11 7 c12 7 16 16 8 16 -3 0 -8 -5 -12 -12z" />
    <path d="M1555 790 c3 -5 8 -10 11 -10 3 0 2 5 -1 10 -3 6 -8 10 -11 10 -3 0
-2 -4 1 -10z" />
    <path d="M1744 748 l-7 -11 11 7 c12 7 16 16 8 16 -3 0 -8 -5 -12 -12z" />
    <path d="M2164 748 l-7 -11 11 7 c12 7 16 16 8 16 -3 0 -8 -5 -12 -12z" />
    <path d="M1445 610 c3 -5 8 -10 11 -10 3 0 2 5 -1 10 -3 6 -8 10 -11 10 -3 0
-2 -4 1 -10z" />
    <path d="M1924 468 l-7 -11 11 7 c12 7 16 16 8 16 -3 0 -8 -5 -12 -12z" />
    <path d="M1335 430 c3 -5 8 -10 11 -10 3 0 2 5 -1 10 -3 6 -8 10 -11 10 -3 0
-2 -4 1 -10z" />
    <path d="M490 400 c0 -7 3 -10 7 -7 3 4 3 10 0 14 -4 3 -7 0 -7 -7z" />
    <path d="M593 293 c4 -3 10 -3 14 0 3 4 0 7 -7 7 -7 0 -10 -3 -7 -7z" />
    <path d="M1775 280 c3 -5 8 -10 11 -10 3 0 2 5 -1 10 -3 6 -8 10 -11 10 -3 0
-2 -4 1 -10z" />
    <path d="M644 268 l-7 -11 11 7 c7 4 12 9 12 12 0 8 -9 4 -16 -8z" />
    <path d="M1225 250 c3 -5 8 -10 11 -10 3 0 2 5 -1 10 -3 6 -8 10 -11 10 -3 0
-2 -4 1 -10z" />
    <path d="M1655 200 c3 -5 8 -10 11 -10 3 0 2 5 -1 10 -3 6 -8 10 -11 10 -3 0
-2 -4 1 -10z" />
    <path d="M1140 120 c0 -7 3 -10 7 -7 3 4 3 10 0 14 -4 3 -7 0 -7 -7z" />
    <path d="M1193 103 c4 -3 10 -3 14 0 3 4 0 7 -7 7 -7 0 -10 -3 -7 -7z" />
    <path d="M1373 103 c4 -3 10 -3 14 0 3 4 0 7 -7 7 -7 0 -10 -3 -7 -7z" />
  </g>
  <g transform="translate(0.000000,192.000000) scale(0.100000,-0.100000)" fill="#c04c3f" stroke="none">
    <path d="M990 1820 c0 -5 5 -10 11 -10 5 0 7 5 4 10 -3 6 -8 10 -11 10 -2 0
-4 -4 -4 -10z" />
    <path d="M1434 1819 c-3 -5 6 -9 20 -9 31 0 34 6 6 13 -11 3 -23 1 -26 -4z" />
    <path d="M1533 1803 c4 -3 10 -3 14 0 3 4 0 7 -7 7 -7 0 -10 -3 -7 -7z" />
    <path d="M1573 1793 c4 -3 10 -3 14 0 3 4 0 7 -7 7 -7 0 -10 -3 -7 -7z" />
    <path d="M1395 1779 c-4 -6 -5 -12 -2 -15 2 -3 7 2 10 11 7 17 1 20 -8 4z" />
    <path d="M1613 1783 c4 -3 10 -3 14 0 3 4 0 7 -7 7 -7 0 -10 -3 -7 -7z" />
    <path d="M1643 1773 c4 -3 10 -3 14 0 3 4 0 7 -7 7 -7 0 -10 -3 -7 -7z" />
    <path d="M1700 1750 c18 -12 30 -13 30 -2 0 4 -10 9 -22 9 l-23 2 15 -9z" />
    <path d="M1360 1730 l-15 -10 12 0 c6 0 15 5 18 10 8 12 4 12 -15 0z" />
    <path d="M1770 1716 c0 -2 7 -7 16 -10 l15 -6 -6 10 c-6 10 -25 14 -25 6z" />
    <path d="M735 1690 c3 -5 8 -10 11 -10 3 0 2 5 -1 10 -3 6 -8 10 -11 10 -3 0
-2 -4 1 -10z" />
    <path d="M1330 1680 l-15 -10 12 0 c6 0 15 5 18 10 8 12 4 12 -15 0z" />
    <path d="M1845 1670 c3 -5 8 -10 11 -10 3 0 2 5 -1 10 -3 6 -8 10 -11 10 -3 0
-2 -4 1 -10z" />
    <path d="M1895 1640 c3 -5 8 -10 11 -10 3 0 2 5 -1 10 -3 6 -8 10 -11 10 -3 0
-2 -4 1 -10z" />
    <path d="M1304 1628 l-7 -11 11 7 c12 7 16 16 8 16 -3 0 -8 -5 -12 -12z" />
    <path d="M1255 1549 c-4 -6 -5 -12 -2 -15 2 -3 7 2 10 11 7 17 1 20 -8 4z" />
    <path d="M1985 1550 c3 -5 8 -10 11 -10 3 0 2 5 -1 10 -3 6 -8 10 -11 10 -3 0
-2 -4 1 -10z" />
    <path d="M565 1520 c3 -5 8 -10 11 -10 3 0 2 5 -1 10 -3 6 -8 10 -11 10 -3 0
-2 -4 1 -10z" />
    <path d="M2015 1510 c3 -5 8 -10 11 -10 3 0 2 5 -1 10 -3 6 -8 10 -11 10 -3 0
-2 -4 1 -10z" />
    <path d="M1225 1499 c-4 -6 -5 -12 -2 -15 2 -3 7 2 10 11 7 17 1 20 -8 4z" />
    <path d="M2035 1480 c3 -5 8 -10 11 -10 3 0 2 5 -1 10 -3 6 -8 10 -11 10 -3 0
-2 -4 1 -10z" />
    <path d="M504 1448 l-7 -11 11 7 c12 7 16 16 8 16 -3 0 -8 -5 -12 -12z" />
    <path d="M1194 1448 l-7 -11 11 7 c12 7 16 16 8 16 -3 0 -8 -5 -12 -12z" />
    <path d="M2071 1420 c14 -31 19 -36 19 -24 0 6 -7 19 -16 30 l-15 19 12 -25z" />
    <path d="M464 1398 l-7 -11 11 7 c12 7 16 16 8 16 -3 0 -8 -5 -12 -12z" />
    <path d="M1160 1400 l-15 -10 12 0 c6 0 15 5 18 10 8 12 4 12 -15 0z" />
    <path d="M556 1377 c3 -10 9 -15 12 -12 3 3 0 11 -7 18 l-12 12 7 -18z" />
    <path d="M444 1368 l-7 -11 11 7 c12 7 16 16 8 16 -3 0 -8 -5 -12 -12z" />
    <path d="M1237 1353 c51 -2 135 -2 186 0 50 1 9 3 -93 3 -102 0 -143 -2 -93
-3z" />
    <path d="M1895 1350 c3 -5 30 -10 60 -10 30 0 57 5 60 10 l6 10 -66 0 -66 0 6
-10z" />
    <path d="M586 1327 c3 -10 9 -15 12 -12 3 3 0 11 -7 18 l-12 12 7 -18z" />
    <path d="M1025 1330 c3 -5 8 -10 11 -10 3 0 2 5 -1 10 -3 6 -8 10 -11 10 -3 0
-2 -4 1 -10z" />
    <path d="M626 1277 c3 -10 9 -15 12 -12 3 3 0 11 -7 18 l-12 12 7 -18z" />
    <path d="M714 1268 l-7 -11 11 7 c7 4 12 9 12 12 0 8 -9 4 -16 -8z" />
    <path d="M656 1227 c3 -10 9 -15 12 -12 3 3 0 11 -7 18 l-12 12 7 -18z" />
    <path d="M686 1177 c3 -10 9 -15 12 -12 3 3 0 11 -7 18 l-12 12 7 -18z" />
    <path d="M360 1170 c0 -7 3 -10 7 -7 3 4 3 10 0 14 -4 3 -7 0 -7 -7z" />
    <path d="M915 1150 c3 -5 8 -10 11 -10 3 0 2 5 -1 10 -3 6 -8 10 -11 10 -3 0
-2 -4 1 -10z" />
    <path d="M350 1130 c0 -7 3 -10 7 -7 3 4 3 10 0 14 -4 3 -7 0 -7 -7z" />
    <path d="M717 1123 c3 -7 6 -13 8 -13 2 0 5 6 8 13 l5 14 -13 0 -13 0 5 -14z" />
    <path d="M746 1078 c3 -5 10 -6 15 -3 13 9 11 12 -6 12 -8 0 -12 -4 -9 -9z" />
    <path d="M341 1054 l1 -19 5 13 c3 7 2 16 -1 19 -3 4 -6 -2 -5 -13z" />
    <path d="M776 1028 c3 -5 10 -6 15 -3 13 9 11 12 -6 12 -8 0 -12 -4 -9 -9z" />
    <path d="M806 978 c3 -5 10 -6 15 -3 13 9 11 12 -6 12 -8 0 -12 -4 -9 -9z" />
    <path d="M341 964 l1 -19 5 13 c3 7 2 16 -1 19 -3 4 -6 -2 -5 -13z" />
    <path d="M836 928 c3 -5 10 -6 15 -3 13 9 11 12 -6 12 -8 0 -12 -4 -9 -9z" />
    <path d="M1635 910 c3 -5 8 -10 11 -10 3 0 2 5 -1 10 -3 6 -8 10 -11 10 -3 0
-2 -4 1 -10z" />
    <path d="M350 890 c0 -7 3 -10 7 -7 3 4 3 10 0 14 -4 3 -7 0 -7 -7z" />
    <path d="M865 880 c3 -5 8 -10 11 -10 3 0 2 5 -1 10 -3 6 -8 10 -11 10 -3 0
-2 -4 1 -10z" />
    <path d="M895 830 c3 -5 8 -10 11 -10 3 0 2 5 -1 10 -3 6 -8 10 -11 10 -3 0
-2 -4 1 -10z" />
    <path d="M370 810 c0 -7 3 -10 7 -7 3 4 3 10 0 14 -4 3 -7 0 -7 -7z" />
    <path d="M380 780 c0 -7 3 -10 7 -7 3 4 3 10 0 14 -4 3 -7 0 -7 -7z" />
    <path d="M925 780 c3 -5 8 -10 11 -10 3 0 2 5 -1 10 -3 6 -8 10 -11 10 -3 0
-2 -4 1 -10z" />
    <path d="M955 730 c3 -5 8 -10 11 -10 3 0 2 5 -1 10 -3 6 -8 10 -11 10 -3 0
-2 -4 1 -10z" />
    <path d="M1525 730 c3 -5 8 -10 11 -10 2 0 4 5 4 10 0 6 -5 10 -11 10 -5 0 -7
-4 -4 -10z" />
    <path d="M410 711 c0 -6 4 -13 10 -16 l10 -6 -6 15 c-7 18 -14 21 -14 7z" />
    <path d="M1770 689 c0 -5 5 -7 10 -4 6 3 10 8 10 11 0 2 -4 4 -10 4 -5 0 -10
-5 -10 -11z" />
    <path d="M655 600 l-6 -10 46 0 46 0 -6 10 c-3 6 -21 10 -40 10 -19 0 -37 -4
-40 -10z" />
    <path d="M1415 550 c3 -5 8 -10 11 -10 2 0 4 5 4 10 0 6 -5 10 -11 10 -5 0 -7
-4 -4 -10z" />
    <path d="M1300 510 c0 -5 5 -10 11 -10 5 0 7 5 4 10 -3 6 -8 10 -11 10 -2 0
-4 -4 -4 -10z" />
    <path d="M494 408 l-7 -11 11 7 c7 4 12 9 12 12 0 8 -9 4 -16 -8z" />
    <path d="M1305 370 c3 -5 8 -10 11 -10 2 0 4 5 4 10 0 6 -5 10 -11 10 -5 0 -7
-4 -4 -10z" />
    <path d="M604 298 l-7 -11 11 7 c7 4 12 9 12 12 0 8 -9 4 -16 -8z" />
    <path d="M1130 230 c0 -5 5 -10 11 -10 5 0 7 5 4 10 -3 6 -8 10 -11 10 -2 0
-4 -4 -4 -10z" />
    <path d="M750 209 c0 -5 5 -7 10 -4 6 3 10 8 10 11 0 2 -4 4 -10 4 -5 0 -10
-5 -10 -11z" />
    <path d="M1195 190 c3 -5 8 -10 11 -10 2 0 4 5 4 10 0 6 -5 10 -11 10 -5 0 -7
-4 -4 -10z" />
    <path d="M1055 130 c4 -6 11 -8 16 -5 14 9 11 15 -7 15 l-15 0 6 -10z" />
    <path d="M1170 119 c0 -5 5 -7 10 -4 6 3 10 8 10 11 0 2 -4 4 -10 4 -5 0 -10
-5 -10 -11z" />
    <path d="M1395 120 c4 -6 11 -8 16 -5 14 9 11 15 -7 15 l-15 0 6 -10z" />
  </g>
  <g transform="translate(0.000000,192.000000) scale(0.100000,-0.100000)" fill="#d06535" stroke="none">
    <path d="M1416 1812 c-3 -5 8 -6 25 -4 16 2 29 6 29 8 0 8 -49 4 -54 -4z" />
    <path d="M1523 1803 c4 -3 10 -3 14 0 3 4 0 7 -7 7 -7 0 -10 -3 -7 -7z" />
    <path d="M1384 1758 l-7 -11 11 7 c12 7 16 16 8 16 -3 0 -8 -5 -12 -12z" />
    <path d="M1713 1743 c4 -3 10 -3 14 0 3 4 0 7 -7 7 -7 0 -10 -3 -7 -7z" />
    <path d="M1765 1720 c3 -5 8 -10 11 -10 3 0 2 5 -1 10 -3 6 -8 10 -11 10 -3 0
-2 -4 1 -10z" />
    <path d="M1815 1690 c3 -5 8 -10 11 -10 3 0 2 5 -1 10 -3 6 -8 10 -11 10 -3 0
-2 -4 1 -10z" />
    <path d="M1905 1630 c3 -5 8 -10 11 -10 3 0 2 5 -1 10 -3 6 -8 10 -11 10 -3 0
-2 -4 1 -10z" />
    <path d="M1274 1578 l-7 -11 11 7 c12 7 16 16 8 16 -3 0 -8 -5 -12 -12z" />
    <path d="M1975 1560 c3 -5 8 -10 11 -10 3 0 2 5 -1 10 -3 6 -8 10 -11 10 -3 0
-2 -4 1 -10z" />
    <path d="M1244 1528 l-7 -11 11 7 c12 7 16 16 8 16 -3 0 -8 -5 -12 -12z" />
    <path d="M1214 1478 l-7 -11 11 7 c12 7 16 16 8 16 -3 0 -8 -5 -12 -12z" />
    <path d="M494 1438 l-7 -11 11 7 c12 7 16 16 8 16 -3 0 -8 -5 -12 -12z" />
    <path d="M535 1410 c3 -5 8 -10 11 -10 3 0 2 5 -1 10 -3 6 -8 10 -11 10 -3 0
-2 -4 1 -10z" />
    <path d="M565 1360 c3 -5 8 -10 11 -10 3 0 2 5 -1 10 -3 6 -8 10 -11 10 -3 0
-2 -4 1 -10z" />
    <path d="M1622 1353 c70 -2 187 -2 260 0 73 1 16 3 -127 3 -143 0 -203 -2
-133 -3z" />
    <path d="M595 1310 c3 -5 8 -10 11 -10 3 0 2 5 -1 10 -3 6 -8 10 -11 10 -3 0
-2 -4 1 -10z" />
    <path d="M613 1283 c4 -3 10 -3 14 0 3 4 0 7 -7 7 -7 0 -10 -3 -7 -7z" />
    <path d="M390 1260 c0 -7 3 -10 7 -7 3 4 3 10 0 14 -4 3 -7 0 -7 -7z" />
    <path d="M635 1260 c3 -5 8 -10 11 -10 3 0 2 5 -1 10 -3 6 -8 10 -11 10 -3 0
-2 -4 1 -10z" />
    <path d="M665 1210 c3 -5 8 -10 11 -10 3 0 2 5 -1 10 -3 6 -8 10 -11 10 -3 0
-2 -4 1 -10z" />
    <path d="M370 1200 c0 -7 3 -10 7 -7 3 4 3 10 0 14 -4 3 -7 0 -7 -7z" />
    <path d="M360 1160 c0 -7 3 -10 7 -7 3 4 3 10 0 14 -4 3 -7 0 -7 -7z" />
    <path d="M695 1160 c3 -5 8 -10 11 -10 3 0 2 5 -1 10 -3 6 -8 10 -11 10 -3 0
-2 -4 1 -10z" />
    <path d="M351 1114 l1 -19 5 13 c3 7 2 16 -1 19 -3 4 -6 -2 -5 -13z" />
    <path d="M725 1110 c3 -5 8 -10 11 -10 3 0 2 5 -1 10 -3 6 -8 10 -11 10 -3 0
-2 -4 1 -10z" />
    <path d="M343 1010 c0 -25 2 -35 4 -22 2 12 2 32 0 45 -2 12 -4 2 -4 -23z" />
    <path d="M351 904 l1 -19 5 13 c3 7 2 16 -1 19 -3 4 -6 -2 -5 -13z" />
    <path d="M360 850 c0 -7 3 -10 7 -7 3 4 3 10 0 14 -4 3 -7 0 -7 -7z" />
  </g>
  <g transform="translate(0.000000,192.000000) scale(0.100000,-0.100000)" fill="#de8539" stroke="none">
    <path d="M1423 1813 c4 -3 10 -3 14 0 3 4 0 7 -7 7 -7 0 -10 -3 -7 -7z" />
    <path d="M1513 1803 c4 -3 10 -3 14 0 3 4 0 7 -7 7 -7 0 -10 -3 -7 -7z" />
    <path d="M1563 1793 c4 -3 10 -3 14 0 3 4 0 7 -7 7 -7 0 -10 -3 -7 -7z" />
    <path d="M1850 1666 c0 -2 7 -7 16 -10 l15 -6 -6 10 c-6 10 -25 14 -25 6z" />
    <path d="M1940 1595 c19 -19 36 -35 39 -35 3 0 -10 16 -29 35 -19 19 -36 35
-39 35 -3 0 10 -16 29 -35z" />
    <path d="M2005 1520 c3 -5 8 -10 11 -10 3 0 2 5 -1 10 -3 6 -8 10 -11 10 -3 0
-2 -4 1 -10z" />
    <path d="M2023 1353 c15 -2 39 -2 55 0 15 2 2 4 -28 4 -30 0 -43 -2 -27 -4z" />
  </g>
  <g transform="translate(0.000000,192.000000) scale(0.100000,-0.100000)" fill="#82858b" stroke="none">
    <path d="M400 583 l0 -18 8 12 8 13 224 3 225 2 -232 3 -233 2 0 -17z" />
    <path d="M1334 568 l-7 -11 11 7 c12 7 16 16 8 16 -3 0 -8 -5 -12 -12z" />
    <path d="M1300 510 c-6 -11 -8 -20 -6 -20 3 0 10 9 16 20 6 11 8 20 6 20 -3 0
-10 -9 -16 -20z" />
    <path d="M445 490 c3 -5 8 -10 11 -10 3 0 2 5 -1 10 -3 6 -8 10 -11 10 -3 0
-2 -4 1 -10z" />
    <path d="M1274 468 l-7 -11 11 7 c12 7 16 16 8 16 -3 0 -8 -5 -12 -12z" />
    <path d="M465 460 c3 -5 8 -10 11 -10 3 0 2 5 -1 10 -3 6 -8 10 -11 10 -3 0
-2 -4 1 -10z" />
    <path d="M485 430 c3 -5 8 -10 11 -10 3 0 2 5 -1 10 -3 6 -8 10 -11 10 -3 0
-2 -4 1 -10z" />
    <path d="M1224 388 l-7 -11 11 7 c7 4 12 9 12 12 0 8 -9 4 -16 -8z" />
    <path d="M550 355 c19 -19 36 -35 39 -35 3 0 -10 16 -29 35 -19 19 -36 35 -39
35 -3 0 10 -16 29 -35z" />
    <path d="M1194 338 l-7 -11 11 7 c7 4 12 9 12 12 0 8 -9 4 -16 -8z" />
    <path d="M637 289 c12 -15 73 -53 73 -46 0 2 -19 17 -42 32 -24 16 -38 22 -31
14z" />
    <path d="M1164 288 l-7 -11 11 7 c7 4 12 9 12 12 0 8 -9 4 -16 -8z" />
    <path d="M1134 238 l-7 -11 11 7 c7 4 12 9 12 12 0 8 -9 4 -16 -8z" />
    <path d="M1100 180 c-6 -11 -8 -20 -6 -20 3 0 10 9 16 20 6 11 8 20 6 20 -3 0
-10 -9 -16 -20z" />
    <path d="M853 173 c4 -3 10 -3 14 0 3 4 0 7 -7 7 -7 0 -10 -3 -7 -7z" />
    <path d="M883 163 c4 -3 10 -3 14 0 3 4 0 7 -7 7 -7 0 -10 -3 -7 -7z" />
    <path d="M918 153 c7 -3 16 -2 19 1 4 3 -2 6 -13 5 l-19 -1 13 -5z" />
    <path d="M968 143 c7 -3 16 -2 19 1 4 3 -2 6 -13 5 l-19 -1 13 -5z" />
    <path d="M1065 140 l-20 -9 17 0 c9 -1 20 4 23 9 7 11 7 11 -20 0z" />
  </g>
  <g transform="translate(0.000000,192.000000) scale(0.100000,-0.100000)" fill="#976268" stroke="none">
    <path d="M973 593 c70 -2 184 -2 255 0 70 1 12 3 -128 3 -140 0 -198 -2 -127
-3z" />
    <path d="M1326 553 l-7 -18 12 12 c7 7 10 15 7 18 -3 3 -9 -2 -12 -12z" />
    <path d="M1300 510 c0 -7 3 -10 7 -7 3 4 3 10 0 14 -4 3 -7 0 -7 -7z" />
    <path d="M1244 418 l-7 -11 11 7 c7 4 12 9 12 12 0 8 -9 4 -16 -8z" />
    <path d="M515 390 c3 -5 8 -10 11 -10 3 0 2 5 -1 10 -3 6 -8 10 -11 10 -3 0
-2 -4 1 -10z" />
    <path d="M1216 373 l-7 -18 12 12 c7 7 10 15 7 18 -3 3 -9 -2 -12 -12z" />
    <path d="M1186 323 l-7 -18 12 12 c7 7 10 15 7 18 -3 3 -9 -2 -12 -12z" />
    <path d="M585 320 c3 -5 8 -10 11 -10 3 0 2 5 -1 10 -3 6 -8 10 -11 10 -3 0
-2 -4 1 -10z" />
    <path d="M1156 273 l-7 -18 12 12 c7 7 10 15 7 18 -3 3 -9 -2 -12 -12z" />
    <path d="M653 273 c4 -3 10 -3 14 0 3 4 0 7 -7 7 -7 0 -10 -3 -7 -7z" />
    <path d="M683 253 c4 -3 10 -3 14 0 3 4 0 7 -7 7 -7 0 -10 -3 -7 -7z" />
    <path d="M720 235 c0 -7 61 -37 66 -33 2 3 -12 12 -31 21 -19 9 -35 15 -35 12z" />
    <path d="M1126 223 l-7 -18 12 12 c7 7 10 15 7 18 -3 3 -9 -2 -12 -12z" />
    <path d="M823 183 c4 -3 10 -3 14 0 3 4 0 7 -7 7 -7 0 -10 -3 -7 -7z" />
    <path d="M1100 180 c0 -7 3 -10 7 -7 3 4 3 10 0 14 -4 3 -7 0 -7 -7z" />
    <path d="M1038 133 c7 -3 16 -2 19 1 4 3 -2 6 -13 5 l-19 -1 13 -5z" />
  </g>
  <g transform="translate(0.000000,192.000000) scale(0.100000,-0.100000)" fill="#8b3679" stroke="none">
    <path d="M1188 1843 c12 -2 32 -2 45 0 12 2 2 4 -23 4 -25 0 -35 -2 -22 -4z" />
    <path d="M1088 1833 c7 -3 16 -2 19 1 4 3 -2 6 -13 5 l-19 -1 13 -5z" />
    <path d="M1315 1830 c3 -5 8 -10 11 -10 2 0 4 5 4 10 0 6 -5 10 -11 10 -5 0
-7 -4 -4 -10z" />
    <path d="M1033 1823 c4 -3 10 -3 14 0 3 4 0 7 -7 7 -7 0 -10 -3 -7 -7z" />
    <path d="M993 1813 c4 -3 10 -3 14 0 3 4 0 7 -7 7 -7 0 -10 -3 -7 -7z" />
    <path d="M963 1803 c4 -3 10 -3 14 0 3 4 0 7 -7 7 -7 0 -10 -3 -7 -7z" />
    <path d="M1300 1790 c-6 -11 -8 -20 -6 -20 3 0 10 9 16 20 6 11 8 20 6 20 -3
0 -10 -9 -16 -20z" />
    <path d="M933 1793 c4 -3 10 -3 14 0 3 4 0 7 -7 7 -7 0 -10 -3 -7 -7z" />
    <path d="M858 1764 c-39 -21 -35 -28 5 -8 37 19 44 24 31 24 -5 -1 -21 -8 -36
-16z" />
    <path d="M1270 1740 c-6 -11 -8 -20 -6 -20 3 0 10 9 16 20 6 11 8 20 6 20 -3
0 -10 -9 -16 -20z" />
    <path d="M784 1718 l-7 -11 11 7 c12 7 16 16 8 16 -3 0 -8 -5 -12 -12z" />
    <path d="M754 1698 l-7 -11 11 7 c12 7 16 16 8 16 -3 0 -8 -5 -12 -12z" />
    <path d="M1244 1698 l-7 -11 11 7 c12 7 16 16 8 16 -3 0 -8 -5 -12 -12z" />
    <path d="M709 1663 l-14 -18 18 14 c9 7 17 15 17 17 0 8 -8 3 -21 -13z" />
    <path d="M1214 1648 l-7 -11 11 7 c12 7 16 16 8 16 -3 0 -8 -5 -12 -12z" />
    <path d="M1184 1598 l-7 -11 11 7 c7 4 12 9 12 12 0 8 -9 4 -16 -8z" />
    <path d="M626 1585 c-11 -8 -15 -15 -9 -15 6 0 16 7 23 15 16 19 11 19 -14 0z" />
    <path d="M1160 1560 c-6 -11 -8 -20 -6 -20 3 0 10 9 16 20 6 11 8 20 6 20 -3
0 -10 -9 -16 -20z" />
    <path d="M584 1538 l-7 -11 11 7 c12 7 16 16 8 16 -3 0 -8 -5 -12 -12z" />
    <path d="M1134 1518 l-7 -11 11 7 c12 7 16 16 8 16 -3 0 -8 -5 -12 -12z" />
    <path d="M1104 1468 l-7 -11 11 7 c7 4 12 9 12 12 0 8 -9 4 -16 -8z" />
    <path d="M595 1460 c3 -5 8 -10 11 -10 3 0 2 5 -1 10 -3 6 -8 10 -11 10 -3 0
-2 -4 1 -10z" />
    <path d="M627 1420 c10 -11 19 -20 21 -20 1 0 -2 9 -8 20 -6 11 -15 20 -20 20
-6 0 -2 -9 7 -20z" />
    <path d="M1074 1418 l-7 -11 11 7 c12 7 16 16 8 16 -3 0 -8 -5 -12 -12z" />
    <path d="M1050 1380 c-6 -11 -8 -20 -6 -20 3 0 10 9 16 20 6 11 8 20 6 20 -3
0 -10 -9 -16 -20z" />
    <path d="M660 1370 c6 -11 13 -20 16 -20 2 0 0 9 -6 20 -6 11 -13 20 -16 20
-2 0 0 -9 6 -20z" />
    <path d="M1024 1338 l-7 -11 11 7 c7 4 12 9 12 12 0 8 -9 4 -16 -8z" />
    <path d="M690 1320 c6 -11 13 -20 16 -20 2 0 0 9 -6 20 -6 11 -13 20 -16 20
-2 0 0 -9 6 -20z" />
    <path d="M994 1288 l-7 -11 11 7 c12 7 16 16 8 16 -3 0 -8 -5 -12 -12z" />
    <path d="M715 1280 c3 -5 8 -10 11 -10 3 0 2 5 -1 10 -3 6 -8 10 -11 10 -3 0
-2 -4 1 -10z" />
    <path d="M964 1238 l-7 -11 11 7 c12 7 16 16 8 16 -3 0 -8 -5 -12 -12z" />
    <path d="M745 1230 c3 -5 8 -10 11 -10 3 0 2 5 -1 10 -3 6 -8 10 -11 10 -3 0
-2 -4 1 -10z" />
    <path d="M940 1200 c-6 -11 -8 -20 -6 -20 3 0 10 9 16 20 6 11 8 20 6 20 -3 0
-10 -9 -16 -20z" />
    <path d="M775 1180 c3 -5 8 -10 11 -10 3 0 2 5 -1 10 -3 6 -8 10 -11 10 -3 0
-2 -4 1 -10z" />
    <path d="M914 1158 l-7 -11 11 7 c12 7 16 16 8 16 -3 0 -8 -5 -12 -12z" />
    <path d="M805 1130 c3 -5 8 -10 11 -10 3 0 2 5 -1 10 -3 6 -8 10 -11 10 -3 0
-2 -4 1 -10z" />
    <path d="M884 1108 l-7 -11 11 7 c7 4 12 9 12 12 0 8 -9 4 -16 -8z" />
    <path d="M830 1090 c6 -11 13 -20 16 -20 2 0 0 9 -6 20 -6 11 -13 20 -16 20
-2 0 0 -9 6 -20z" />
    <path d="M854 1058 l-7 -11 11 7 c12 7 16 16 8 16 -3 0 -8 -5 -12 -12z" />
  </g>
  <g transform="translate(0.000000,192.000000) scale(0.100000,-0.100000)" fill="#5f3cc0" stroke="none">
    <path d="M1103 1833 c4 -3 10 -3 14 0 3 4 0 7 -7 7 -7 0 -10 -3 -7 -7z" />
    <path d="M1300 1836 c0 -2 7 -7 16 -10 l15 -6 -6 10 c-6 10 -25 14 -25 6z" />
    <path d="M1043 1823 c4 -3 10 -3 14 0 3 4 0 7 -7 7 -7 0 -10 -3 -7 -7z" />
    <path d="M744 1688 l-7 -11 11 7 c12 7 16 16 8 16 -3 0 -8 -5 -12 -12z" />
    <path d="M669 1623 l-34 -38 38 34 c34 33 42 41 34 41 -2 0 -19 -17 -38 -37z" />
    <path d="M570 1510 c0 -7 3 -10 7 -7 3 4 3 10 0 14 -4 3 -7 0 -7 -7z" />
  </g>
  <g transform="translate(0.000000,192.000000) scale(0.100000,-0.100000)" fill="#55bf2f" stroke="none">
    <path d="M1660 870 c6 -11 13 -20 16 -20 2 0 0 9 -6 20 -6 11 -13 20 -16 20
-2 0 0 -9 6 -20z" />
    <path d="M1610 860 c-6 -11 -8 -20 -6 -20 3 0 10 9 16 20 6 11 8 20 6 20 -3 0
-10 -9 -16 -20z" />
    <path d="M1685 830 c3 -5 8 -10 11 -10 3 0 2 5 -1 10 -3 6 -8 10 -11 10 -3 0
-2 -4 1 -10z" />
    <path d="M1584 818 l-7 -11 11 7 c7 4 12 9 12 12 0 8 -9 4 -16 -8z" />
    <path d="M1710 791 c0 -6 4 -13 10 -16 l10 -6 -6 15 c-7 18 -14 21 -14 7z" />
    <path d="M1556 773 l-7 -18 12 12 c7 7 10 15 7 18 -3 3 -9 -2 -12 -12z" />
    <path d="M1740 741 c0 -6 4 -13 10 -16 l10 -6 -6 15 c-7 18 -14 21 -14 7z" />
    <path d="M1526 723 l-7 -18 12 12 c7 7 10 15 7 18 -3 3 -9 -2 -12 -12z" />
    <path d="M1500 680 c-6 -11 -8 -20 -6 -20 3 0 10 9 16 20 6 11 8 20 6 20 -3 0
-10 -9 -16 -20z" />
    <path d="M1770 691 c0 -6 4 -13 10 -16 l10 -6 -6 15 c-7 18 -14 21 -14 7z" />
    <path d="M1800 640 c6 -11 13 -20 16 -20 2 0 0 9 -6 20 -6 11 -13 20 -16 20
-2 0 0 -9 6 -20z" />
    <path d="M1474 638 c-4 -7 -14 -24 -22 -38 l-14 -25 17 20 c20 24 37 55 31 55
-3 0 -8 -6 -12 -12z" />
    <path d="M1830 590 c6 -11 13 -20 16 -20 2 0 0 9 -6 20 -6 11 -13 20 -16 20
-2 0 0 -9 6 -20z" />
    <path d="M1416 543 l-7 -18 12 12 c7 7 10 15 7 18 -3 3 -9 -2 -12 -12z" />
    <path d="M1867 540 c10 -11 19 -20 21 -20 1 0 -2 9 -8 20 -6 11 -15 20 -20 20
-6 0 -2 -9 7 -20z" />
    <path d="M1390 500 c-6 -11 -8 -20 -6 -20 3 0 10 9 16 20 6 11 8 20 6 20 -3 0
-10 -9 -16 -20z" />
    <path d="M1895 500 c3 -5 8 -10 11 -10 3 0 2 5 -1 10 -3 6 -8 10 -11 10 -3 0
-2 -4 1 -10z" />
    <path d="M1364 458 c-4 -7 -14 -24 -22 -38 l-14 -25 17 20 c20 24 37 55 31 55
-3 0 -8 -6 -12 -12z" />
    <path d="M1921 454 l1 -19 5 13 c3 7 2 16 -1 19 -3 4 -6 -2 -5 -13z" />
    <path d="M1899 413 l-14 -18 18 14 c16 13 21 21 13 21 -2 0 -10 -8 -17 -17z" />
    <path d="M1306 363 l-7 -18 12 12 c7 7 10 15 7 18 -3 3 -9 -2 -12 -12z" />
    <path d="M1819 333 l-24 -28 28 24 c25 23 32 31 24 31 -2 0 -14 -12 -28 -27z" />
    <path d="M1280 320 c-6 -11 -8 -20 -6 -20 3 0 10 9 16 20 6 11 8 20 6 20 -3 0
-10 -9 -16 -20z" />
    <path d="M1254 278 c-4 -7 -14 -24 -22 -38 l-14 -25 17 20 c20 24 37 55 31 55
-3 0 -8 -6 -12 -12z" />
    <path d="M1722 256 c-46 -33 -53 -43 -14 -20 19 10 38 25 44 32 15 17 8 14
-30 -12z" />
    <path d="M1630 200 c-8 -5 -10 -10 -5 -10 6 0 17 5 25 10 8 5 11 10 5 10 -5 0
-17 -5 -25 -10z" />
    <path d="M1196 183 l-7 -18 12 12 c7 7 10 15 7 18 -3 3 -9 -2 -12 -12z" />
    <path d="M1560 170 c-8 -5 -10 -10 -5 -10 6 0 17 5 25 10 8 5 11 10 5 10 -5 0
-17 -5 -25 -10z" />
    <path d="M1177 153 c-4 -3 -7 -12 -7 -20 l0 -13 23 1 22 1 -18 5 -18 5 5 14
c6 15 3 18 -7 7z" />
    <path d="M1523 153 c4 -3 10 -3 14 0 3 4 0 7 -7 7 -7 0 -10 -3 -7 -7z" />
    <path d="M1483 143 c4 -3 10 -3 14 0 3 4 0 7 -7 7 -7 0 -10 -3 -7 -7z" />
    <path d="M1443 133 c4 -3 10 -3 14 0 3 4 0 7 -7 7 -7 0 -10 -3 -7 -7z" />
    <path d="M1368 123 c6 -2 18 -2 25 0 6 3 1 5 -13 5 -14 0 -19 -2 -12 -5z" />
  </g>
  <g transform="translate(0.000000,192.000000) scale(0.100000,-0.100000)" fill="#995b35" stroke="none">
    <path d="M1634 898 l-7 -11 11 7 c12 7 16 16 8 16 -3 0 -8 -5 -12 -12z" />
    <path d="M1705 800 c3 -5 8 -10 11 -10 3 0 2 5 -1 10 -3 6 -8 10 -11 10 -3 0
-2 -4 1 -10z" />
    <path d="M1564 788 l-7 -11 11 7 c12 7 16 16 8 16 -3 0 -8 -5 -12 -12z" />
    <path d="M1735 750 c3 -5 8 -10 11 -10 3 0 2 5 -1 10 -3 6 -8 10 -11 10 -3 0
-2 -4 1 -10z" />
    <path d="M1534 738 l-7 -11 11 7 c12 7 16 16 8 16 -3 0 -8 -5 -12 -12z" />
    <path d="M1765 700 c3 -5 8 -10 11 -10 3 0 2 5 -1 10 -3 6 -8 10 -11 10 -3 0
-2 -4 1 -10z" />
    <path d="M1454 608 l-7 -11 11 7 c12 7 16 16 8 16 -3 0 -8 -5 -12 -12z" />
    <path d="M1424 558 l-7 -11 11 7 c12 7 16 16 8 16 -3 0 -8 -5 -12 -12z" />
    <path d="M1915 470 c3 -5 8 -10 11 -10 3 0 2 5 -1 10 -3 6 -8 10 -11 10 -3 0
-2 -4 1 -10z" />
    <path d="M1344 428 l-7 -11 11 7 c7 4 12 9 12 12 0 8 -9 4 -16 -8z" />
    <path d="M1314 378 l-7 -11 11 7 c12 7 16 16 8 16 -3 0 -8 -5 -12 -12z" />
    <path d="M1874 378 l-7 -11 11 7 c12 7 16 16 8 16 -3 0 -8 -5 -12 -12z" />
    <path d="M1779 293 l-14 -18 18 14 c16 13 21 21 13 21 -2 0 -10 -8 -17 -17z" />
    <path d="M1734 258 l-7 -11 11 7 c7 4 12 9 12 12 0 8 -9 4 -16 -8z" />
    <path d="M1234 248 l-7 -11 11 7 c7 4 12 9 12 12 0 8 -9 4 -16 -8z" />
    <path d="M1704 238 l-7 -11 11 7 c7 4 12 9 12 12 0 8 -9 4 -16 -8z" />
    <path d="M1654 208 l-7 -11 11 7 c12 7 16 16 8 16 -3 0 -8 -5 -12 -12z" />
    <path d="M1204 198 l-7 -11 11 7 c7 4 12 9 12 12 0 8 -9 4 -16 -8z" />
    <path d="M1493 143 c4 -3 10 -3 14 0 3 4 0 7 -7 7 -7 0 -10 -3 -7 -7z" />
    <path d="M1453 133 c4 -3 10 -3 14 0 3 4 0 7 -7 7 -7 0 -10 -3 -7 -7z" />
    <path d="M1403 123 c4 -3 10 -3 14 0 3 4 0 7 -7 7 -7 0 -10 -3 -7 -7z" />
    <path d="M1268 113 c12 -2 32 -2 45 0 12 2 2 4 -23 4 -25 0 -35 -2 -22 -4z" />
  </g>
  <g transform="translate(0.000000,192.000000) scale(0.100000,-0.100000)" fill="#798b32" stroke="none">
    <path d="M1854 364 l-19 -15 23 11 c12 6 22 13 22 15 0 8 -5 6 -26 -11z" />
    <path d="M1794 308 l-7 -11 11 7 c7 4 12 9 12 12 0 8 -9 4 -16 -8z" />
    <path d="M1173 123 c4 -3 10 -3 14 0 3 4 0 7 -7 7 -7 0 -10 -3 -7 -7z" />
    <path d="M1393 123 c4 -3 10 -3 14 0 3 4 0 7 -7 7 -7 0 -10 -3 -7 -7z" />
  </g>
  <g transform="translate(0.000000,192.000000) scale(0.100000,-0.100000)" fill="#5bc2c8" stroke="none">
    <path d="M495 420 c3 -5 8 -10 11 -10 3 0 2 5 -1 10 -3 6 -8 10 -11 10 -3 0
-2 -4 1 -10z" />
    <path d="M610 306 c0 -2 7 -7 16 -10 l15 -6 -6 10 c-6 10 -25 14 -25 6z" />
    <path d="M988 143 c7 -3 16 -2 19 1 4 3 -2 6 -13 5 l-19 -1 13 -5z" />
  </g>
</svg>